<?xml version="1.0" encoding="UTF-8"?>
<svg width="144px" height="144px" viewBox="0 0 144 144" version="1.1" xmlns="http://www.w3.org/2000/svg" xmlns:xlink="http://www.w3.org/1999/xlink">
    <!-- Generator: Sketch 51.3 (57544) - http://www.bohemiancoding.com/sketch -->
    <title>Event_Support_Icon</title>
    <desc>Created with Sketch.</desc>
    <defs>
        <circle id="path-1" cx="72" cy="72" r="72"></circle>
        <linearGradient x1="37.9422433%" y1="33.3968496%" x2="75.9137835%" y2="71.9464558%" id="linearGradient-3">
            <stop stop-color="#0093A5" offset="0%"></stop>
            <stop stop-color="#0093A5" stop-opacity="0" offset="100%"></stop>
        </linearGradient>
    </defs>
    <g id="Event_Support_Icon" stroke="none" stroke-width="1" fill="none" fill-rule="evenodd">
        <g id="Group-2">
            <g id="Path-3">
                <mask id="mask-2" fill="white">
                    <use xlink:href="#path-1"></use>
                </mask>
                <use id="Mask" fill="#29AFBE" fill-rule="nonzero" xlink:href="#path-1"></use>
                <circle id="Mask" stroke="#0093A5" stroke-width="5" opacity="0.347321429" fill-rule="nonzero" mask="url(#mask-2)" cx="75" cy="75" r="69.5"></circle>
                <circle id="Mask" stroke="#74CBD4" stroke-width="5" fill-rule="nonzero" mask="url(#mask-2)" cx="72" cy="72" r="69.5"></circle>
                <g id="Group-6" mask="url(#mask-2)" fill-rule="nonzero">
                    <g transform="translate(17.000000, 24.000000)">
                        <path d="M21.4851797,41.5185141 C21.2407878,41.5227804 20.9646603,41.5242593 20.6440972,41.5242593 C17.553905,41.5242593 14.5782645,40.5211001 12.0872805,38.7364629 C6.71152326,41.9114786 3.28346138,47.5806565 3.05555556,54.0671962 L3.05555556,60.500368 C3.05555556,60.6280469 3.96983796,61.3010188 5.85481097,61.9309594 C7.86781422,62.6036864 10.6091037,63.1243775 13.7234524,63.4164424 C14.8515902,57.0102481 18.5363321,51.3584588 23.8626781,47.8767795 C22.5720272,45.9799616 21.7528239,43.8097321 21.4851797,41.5185141 Z M26.8553001,49.6476967 C21.1635268,52.7490086 17.2962878,58.5987987 16.5476209,65.2290334 L16.3833219,66.6840739 L14.9242572,66.58319 C6.16720505,65.9777019 0,63.916679 0,60.500368 L0,57.2848668 C0,54.8716139 0,54.8716139 0.000937043658,54.0136309 C0.280238904,46.0330527 4.68889503,39.1268086 11.5147687,35.5563227 L12.4126579,35.0866537 L13.1942284,35.7319556 C15.3066869,37.4761021 17.9267245,38.4650064 20.6440972,38.4650064 C21.7390272,38.4650064 22.1961587,38.44508 22.6166529,38.3607649 L24.4444444,37.9942663 L24.4444444,39.8606085 C24.4444444,42.6208109 25.4541032,45.2281366 27.2712671,47.2928863 L28.5371814,48.7312796 L26.8553001,49.6476967 Z M55,64.5997669 C60.2836341,64.5997669 64.5677083,60.304673 64.5677083,55.0053671 C64.5677083,49.7060612 60.2836341,45.4109673 55,45.4109673 C49.7163659,45.4109673 45.4322917,49.7060612 45.4322917,55.0053671 C45.4322917,60.304673 49.7163659,64.5997669 55,64.5997669 Z M55,67.6590198 C48.0278985,67.6590198 42.3767361,61.9933213 42.3767361,55.0053671 C42.3767361,48.0174129 48.0278985,42.3517144 55,42.3517144 C61.9721015,42.3517144 67.6232639,48.0174129 67.6232639,55.0053671 C67.6232639,61.9933213 61.9721015,67.6590198 55,67.6590198 Z M55,69.669386 C51.9098078,69.669386 48.9341672,68.6662267 46.4431833,66.8815895 C41.067426,70.0566052 37.6393642,75.7257832 37.4114583,82.2123229 L37.4114583,88.6454947 C37.4114583,88.6466836 37.5951327,88.8740813 38.1685635,89.2167897 C38.9819474,89.702905 40.2435808,90.1740495 41.8542547,90.579704 C45.2794719,91.4423583 49.97202,91.9407471 55,91.9407471 C60.02798,91.9407471 64.7205281,91.4423583 68.1457453,90.579704 C69.7564192,90.1740495 71.0180526,89.702905 71.8314365,89.2167897 C72.4048673,88.8740813 72.5885417,88.6466836 72.5885417,88.6454947 L72.5894787,82.2658882 C72.3590891,75.6828945 68.8914319,69.9163311 63.5707567,66.8715906 C61.0769379,68.6624793 58.0959587,69.669386 55,69.669386 Z M64.1058614,63.689431 C70.9002278,67.0953525 75.3619875,74.124724 75.6440972,82.2123229 L75.6440972,88.6454947 C75.6440972,92.7199984 66.5912233,95 55,95 C43.4087767,95 34.3559028,92.7199984 34.3559028,88.6454947 L34.3559028,85.4299935 C34.3559028,83.0167405 34.3559028,83.0167405 34.3568398,82.1587576 C34.6361417,74.1781793 39.0447978,67.2719353 45.8706715,63.7014493 L46.7685607,63.2317804 L47.5501311,63.8770823 C49.6625896,65.6212288 52.2826273,66.6101331 55,66.6101331 C57.7173727,66.6101331 60.3374104,65.6212288 62.4498689,63.8770823 L63.2168833,63.2437986 L64.1058614,63.689431 Z M40.5052083,55.0053671 C40.5052083,54.5476785 40.5279289,54.0950102 40.572476,53.6466457 C39.1117852,54.1371859 37.5814044,54.390603 36.0173611,54.390603 C32.9271689,54.390603 29.9515283,53.3874437 27.4605444,51.6028065 C22.0847872,54.7778222 18.6567253,60.4470001 18.4288194,66.9335398 L18.4288194,73.3667116 C18.4288194,73.3480521 18.5808335,73.5416066 19.0886228,73.8544386 C19.8277833,74.3098106 20.9841369,74.7585981 22.4738767,75.1553281 C25.330096,75.9159629 29.1980726,76.4346987 33.4635734,76.6184268 C34.8538403,71.0704862 38.2353108,66.3283089 42.9942026,63.1667641 C41.3969702,60.796035 40.5052083,57.9302936 40.5052083,55.0053671 Z M45.9895594,64.916548 C40.837209,67.8143256 37.2862399,72.6929853 36.1811425,78.4788938 L35.9372503,79.7558291 L34.6392232,79.7206571 C23.5308831,79.4196594 15.3732639,77.2472181 15.3732639,73.3667116 L15.3732639,70.1512105 C15.3732639,67.7379575 15.3732639,67.7379575 15.3742009,66.8799745 C15.6535028,58.8993963 20.0621589,51.9931522 26.8880326,48.4226663 L27.7859218,47.9529974 L28.5674923,48.5982992 C30.6799507,50.3424458 33.2999884,51.3313501 36.0173611,51.3313501 C38.1008524,51.3313501 40.1064153,50.7611454 41.9145678,49.6734633 L45.4557646,47.54328 L44.150963,51.4677535 C43.7646947,52.6295391 43.5607639,53.7978554 43.5607639,55.0053671 C43.5607639,57.8003623 44.5955623,60.5354845 46.3875865,62.5716694 L47.6362248,63.9904328 L45.9895594,64.916548 Z M35.8836806,49.3209839 C41.1673146,49.3209839 45.4513889,45.02589 45.4513889,39.7265841 C45.4513889,34.4272782 41.1673146,30.1321843 35.8836806,30.1321843 C30.6000465,30.1321843 26.3159722,34.4272782 26.3159722,39.7265841 C26.3159722,45.02589 30.6000465,49.3209839 35.8836806,49.3209839 Z M35.8836806,52.3802368 C28.9115791,52.3802368 23.2604167,46.7145383 23.2604167,39.7265841 C23.2604167,32.7386299 28.9115791,27.0729314 35.8836806,27.0729314 C42.855782,27.0729314 48.5069444,32.7386299 48.5069444,39.7265841 C48.5069444,46.7145383 42.855782,52.3802368 35.8836806,52.3802368 Z M35.8836806,22.2480525 C41.1887524,22.2480525 45.4513889,17.9744515 45.4513889,12.6536527 C45.4513889,7.33285387 41.1887524,3.0592529 35.8836806,3.0592529 C30.5786087,3.0592529 26.3159722,7.33285387 26.3159722,12.6536527 C26.3159722,12.9975558 26.3386069,13.2815738 26.4018465,13.6771786 C30.0365391,15.2112716 32.8685193,18.2625092 34.2593072,22.0888865 C34.8026056,22.1951791 35.3436659,22.2480525 35.8836806,22.2480525 Z M31.6128791,23.8145927 C30.5368881,20.2187305 27.9247004,17.4081962 24.5569088,16.2439016 L23.728931,15.9576577 L23.5574462,15.0980277 C23.3381462,13.9987075 23.2604167,13.4532013 23.2604167,12.6536527 C23.2604167,5.64420557 28.8901413,0 35.8836806,0 C42.8772198,0 48.5069444,5.64420557 48.5069444,12.6536527 C48.5069444,19.6630998 42.8772198,25.3073054 35.8836806,25.3073054 C34.8043314,25.3073054 33.7272326,25.1530384 32.6561482,24.8462271 L31.8527092,24.6160826 L31.6128791,23.8145927 Z M20.6440972,17.3998651 C15.3390254,17.3998651 11.0763889,21.673466 11.0763889,26.9942649 C11.0763889,32.3150637 15.3390254,36.5886647 20.6440972,36.5886647 C20.9438838,36.5886647 21.2561232,36.566427 21.5992088,36.5224063 C22.6030389,31.8713693 25.8368183,27.9836286 30.1800248,26.2017478 C29.7814696,21.2554105 25.6830141,17.3998651 20.6440972,17.3998651 Z M20.6440972,39.6479176 C13.650558,39.6479176 8.02083333,34.003712 8.02083333,26.9942649 C8.02083333,19.9848177 13.650558,14.3406122 20.6440972,14.3406122 C27.6376365,14.3406122 33.2673611,19.9848177 33.2673611,26.9942649 L33.2673611,28.3845087 L32.1982188,28.7213891 C28.0801149,30.0189795 25.0193085,33.6880527 24.4307197,38.0548133 L24.2850056,39.1358713 L23.2166805,39.3500859 C22.2491021,39.5440993 21.4552044,39.6479176 20.6440972,39.6479176 Z M74.1163194,49.3209839 C79.3999535,49.3209839 83.6840278,45.02589 83.6840278,39.7265841 C83.6840278,34.4272782 79.3999535,30.1321843 74.1163194,30.1321843 C68.8326854,30.1321843 64.5486111,34.4272782 64.5486111,39.7265841 C64.5486111,45.02589 68.8326854,49.3209839 74.1163194,49.3209839 Z M74.1163194,52.3802368 C67.144218,52.3802368 61.4930556,46.7145383 61.4930556,39.7265841 C61.4930556,32.7386299 67.144218,27.0729314 74.1163194,27.0729314 C81.0884209,27.0729314 86.7395833,32.7386299 86.7395833,39.7265841 C86.7395833,46.7145383 81.0884209,52.3802368 74.1163194,52.3802368 Z M74.1163194,54.390603 C72.5491713,54.390603 71.0158193,54.1361787 69.5525062,53.6437215 C69.6028979,54.1038431 69.6284722,54.5563448 69.6284722,55.0053671 C69.6284722,57.9985814 68.7610359,60.7887849 67.1572904,63.1509611 C71.7481236,66.1449574 75.1269388,70.860157 76.7500619,76.3679471 C80.9826032,76.238342 84.8467206,75.7277106 87.71555,74.9405377 C89.1780224,74.5392525 90.317701,74.0814486 91.0467575,73.617255 C91.5494886,73.2971638 91.7048611,73.0939216 91.7048611,73.0986628 L91.7058675,66.7210016 C91.4750814,60.3580589 87.9816284,54.6224964 82.6870671,51.592814 C80.1932501,53.3836987 77.2122744,54.390603 74.1163194,54.390603 Z M83.2221808,48.4106479 C89.9796848,51.7980908 94.4762021,58.8017203 94.7604167,66.665491 L94.7604167,73.0986628 C94.7604167,77.0233659 86.4404748,79.3062597 75.6074774,79.4530281 L74.391099,79.4695079 L74.1026101,78.2862905 C72.6854606,72.4739482 69.1021301,67.5840917 64.169238,64.9303655 L62.4732226,64.0179676 L63.746094,62.5716694 C65.5731513,60.4956783 66.5729167,57.8835272 66.5729167,55.0053671 C66.5729167,53.9259289 66.3704328,52.7659018 65.9687819,51.4236217 L64.8361477,47.6384632 L68.2191128,49.6734633 C70.0272653,50.7611454 72.0328281,51.3313501 74.1163194,51.3313501 C76.8336921,51.3313501 79.4537298,50.3424458 81.5661883,48.5982992 L82.3332027,47.9650155 L83.2221808,48.4106479 Z M89.3559028,41.6582838 C88.9724353,41.6582838 88.7280685,41.6571403 88.5148339,41.6524222 C88.2472038,43.9436832 87.4279947,46.1139539 86.1373219,48.0108039 C91.4636679,51.4924832 95.1484098,57.1442725 96.2765476,63.5504668 C99.3908963,63.2584019 102.132186,62.7377108 104.145189,62.0649838 C106.030162,61.4350432 106.944444,60.7620713 106.944444,60.6343924 L106.945381,54.2547859 C106.714992,47.6717922 103.247335,41.9052288 97.9266595,38.8604884 C95.4328406,40.6513771 92.4518615,41.6582838 89.3559028,41.6582838 Z M98.4617641,35.6783287 C105.256131,39.0842503 109.71789,46.1136217 110,54.2012206 L110,60.6343924 C110,64.0507034 103.832795,66.1117263 95.0757428,66.7172144 L93.6166781,66.8180984 L93.4523791,65.3630578 C92.7037122,58.7328231 88.8364732,52.883033 83.1446999,49.7817211 L81.4628186,48.865304 L82.7287329,47.4269108 C84.5458968,45.362161 85.5555556,42.7548353 85.5555556,39.9946329 L85.5555556,38.1885655 L87.3348309,38.4858742 C87.6474977,38.5381193 87.9492659,38.5683738 88.2890851,38.5838598 C88.5661877,38.5964878 88.7944741,38.5990309 89.3559028,38.5990309 C92.0732755,38.5990309 94.6933131,37.6101266 96.8057716,35.86598 L97.572786,35.2326963 L98.4617641,35.6783287 Z M83.8177083,12.6536527 C83.8177083,7.33285387 79.5550718,3.0592529 74.25,3.0592529 C68.9449282,3.0592529 64.6822917,7.33285387 64.6819318,12.6868524 C64.5673788,17.9698437 68.799051,22.2480525 74.1163194,22.2480525 C74.6563339,22.2480525 75.1973941,22.1951791 75.7406924,22.0888865 C77.1415308,18.2353999 80.0004157,15.1931641 83.7268441,13.6690495 C83.7863222,13.271593 83.8177083,12.9324038 83.8177083,12.6536527 Z M74.1163194,25.3073054 C67.0937586,25.3073054 61.4751721,19.6269301 61.6267361,12.6536527 C61.6267361,5.64420557 67.2564607,0 74.25,0 C81.2435393,0 86.8732639,5.64420557 86.8732639,12.6536527 C86.8732639,13.358982 86.7663625,14.1449422 86.5763126,15.0976358 L86.4026918,15.9679727 L85.5618422,16.2489768 C82.0930473,17.408216 79.4696837,20.1967679 78.3871209,23.8145927 L78.1472908,24.6160826 L77.3438518,24.8462271 C76.2727674,25.1530384 75.1956686,25.3073054 74.1163194,25.3073054 Z M88.39873,36.5151609 C88.7707791,36.5660565 89.0607103,36.5886647 89.3559028,36.5886647 C94.6609746,36.5886647 98.9236111,32.3150637 98.9236111,26.9942649 C98.9236111,21.673466 94.6609746,17.3998651 89.3226529,17.3995028 C84.3385502,17.290874 80.2051857,21.2210022 79.8178444,26.2251374 C84.1925253,28.1036899 87.398923,31.9147435 88.39873,36.5151609 Z M76.7326389,26.9942649 C76.7326389,19.9356293 82.4171347,14.189019 89.3559028,14.3406122 C96.349442,14.3406122 101.979167,19.9848177 101.979167,26.9942649 C101.979167,34.003712 96.349442,39.6479176 89.3559028,39.6479176 C88.9110779,39.6479176 88.486098,39.6147785 88.0129194,39.5500882 C87.7110118,39.5088131 87.4092217,39.4583854 86.8321682,39.3590565 L85.720029,39.1732232 L85.5692803,38.0548133 C84.9879005,33.7415366 81.9675407,30.1538622 77.7643181,28.7090505 L76.7326389,28.354422 L76.7326389,26.9942649 Z M49.4892478,34.7736918 C51.0317852,35.8607129 52.9599541,36.4546403 55,36.4546403 C56.9199653,36.4546403 58.8762558,35.8194609 60.5537084,34.7189736 C61.3911364,32.5590632 62.6766207,30.6150963 64.3271802,28.9997919 C64.4901147,28.3155849 64.5677083,27.6290919 64.5677083,26.8602404 C64.5677083,21.5394416 60.3050718,17.2658406 55,17.2658406 C49.6949282,17.2658406 45.4322917,21.5394416 45.4322917,26.8602404 C45.4322917,27.6179852 45.5076597,28.2957336 45.665812,28.9701382 C47.372457,30.5318011 48.7486536,32.600845 49.4892478,34.7736918 Z M42.8364101,30.2284703 C42.5253952,29.137118 42.3767361,28.0565677 42.3767361,26.8602404 C42.3767361,19.8507933 48.0064607,14.2065877 55,14.2065877 C61.9935393,14.2065877 67.6232639,19.8507933 67.6232639,26.8602404 C67.6232639,28.0565677 67.4746048,29.137118 67.1635899,30.2284703 L67.0460505,30.6409166 L66.7314662,30.932049 C65.1610349,32.3854067 63.9712531,34.1899628 63.2586047,36.2143269 L63.0984288,36.6693262 L62.7065106,36.9499878 C60.4507446,38.5653937 57.7308051,39.5138931 55,39.5138931 C52.1232064,39.5138931 49.3833022,38.5982425 47.2376042,36.9080004 L46.8539923,36.6058158 L46.7164359,36.1369209 C46.1514115,34.2108966 44.8832017,32.3036887 43.3179176,30.9758106 L42.96377,30.6753764 L42.8364101,30.2284703 Z" id="Combined-Shape" fill="#29AFBE"></path>
                        <polygon id="Rectangle-5" fill="url(#linearGradient-3)" points="95.6647139 20 143 67 84 128 37.7788497 89.7788497 3 61 12 38 12 32 17 20 26 14 41 5 57 18 59 18 65 20 65 14 80 6"></polygon>
                        <path d="M21.4491686,41.5105389 C21.2045175,41.5148109 20.9280971,41.5162919 20.6071941,41.5162919 C17.5137248,41.5162919 14.5349286,40.5117951 12.041303,38.7247784 C6.65984482,41.9040274 3.22814752,47.580764 3,54.0759523 L3,60.5177014 C3,60.6455506 3.91525199,61.3194197 5.80222399,61.9502002 C7.81736201,62.6238242 10.5615586,63.1452095 13.67921,63.4376638 C14.8085443,57.0229281 18.4971937,51.3636033 23.8291883,47.8772819 C22.5371686,45.9779349 21.7170966,43.8048119 21.4491686,41.5105389 Z M54.999531,64.6225661 C60.2887683,64.6225661 64.5773858,60.3217455 64.5773858,55.015374 C64.5773858,49.7090026 60.2887683,45.408182 54.999531,45.408182 C49.7102937,45.408182 45.4216762,49.7090026 45.4216762,55.015374 C45.4216762,60.3217455 49.7102937,64.6225661 54.999531,64.6225661 Z M54.999531,69.6989445 C51.9060617,69.6989445 48.9272655,68.6944477 46.4336399,66.907431 C41.0521817,70.08668 37.6204844,75.7634166 37.3923369,82.2586049 L37.3923369,88.700354 C37.3923369,88.7015445 37.576206,88.9292454 38.1502449,89.2724108 C38.9644914,89.7591742 40.2274628,90.2309469 41.8398448,90.6371422 C45.2686944,91.5009467 49.9662189,92 54.999531,92 C60.0328431,92 64.7303676,91.5009467 68.1592172,90.6371422 C69.7715992,90.2309469 71.0345706,89.7591742 71.848817,89.2724108 C72.422856,88.9292454 72.6067251,88.7015445 72.6067251,88.700354 L72.6076631,82.3122416 C72.3770292,75.7204708 68.9056946,69.9462188 63.5793769,66.8974188 C61.0829134,68.6906953 58.0987729,69.6989445 54.999531,69.6989445 Z M40.4893677,55.015374 C40.4893677,54.5570752 40.5121124,54.1038033 40.5567067,53.654841 C39.0944669,54.1460352 37.5624631,54.3997902 35.9967612,54.3997902 C32.9032919,54.3997902 29.9244957,53.3952934 27.4308701,51.6082768 C22.0494119,54.7875257 18.6177146,60.4642624 18.3895671,66.9594506 L18.3895671,73.4011998 C18.3895671,73.3825154 18.5417423,73.5763279 19.0500701,73.889577 C19.7900145,74.3455562 20.9475944,74.794942 22.4389141,75.192201 C25.2981624,75.9538499 29.1702409,76.4732774 33.4402653,76.6572504 C34.8320065,71.1019128 38.217063,66.3534127 42.9810016,63.1876526 C41.3820753,60.8137626 40.4893677,57.9442003 40.4893677,55.015374 Z M35.8629389,49.3234118 C41.1521762,49.3234118 45.4407937,45.0225912 45.4407937,39.7162198 C45.4407937,34.4098483 41.1521762,30.1090277 35.8629389,30.1090277 C30.5737016,30.1090277 26.2850841,34.4098483 26.2850841,39.7162198 C26.2850841,45.0225912 30.5737016,49.3234118 35.8629389,49.3234118 Z M35.8629389,22.2143841 C41.1736367,22.2143841 45.4407937,17.9350851 45.4407937,12.607192 C45.4407937,7.27929897 41.1736367,3 35.8629389,3 C30.5522411,3 26.2850841,7.27929897 26.2850841,12.607192 C26.2850841,12.9515537 26.3077428,13.2359504 26.3710494,13.6320826 C30.0095966,15.168221 32.8445801,18.2235268 34.2368429,22.0550058 C34.7807175,22.1614401 35.3223516,22.2143841 35.8629389,22.2143841 Z M20.6071941,17.3597325 C15.2964963,17.3597325 11.0293393,21.6390315 11.0293393,26.9669245 C11.0293393,32.2948176 15.2964963,36.5741166 20.6071941,36.5741166 C20.9072986,36.5741166 21.2198692,36.5518492 21.5633186,36.5077699 C22.5682133,31.8505316 25.805422,27.9576074 30.1532344,26.1733508 C29.7542566,21.2204185 25.6514547,17.3597325 20.6071941,17.3597325 Z M74.1361231,49.3234118 C79.4253604,49.3234118 83.7139779,45.0225912 83.7139779,39.7162198 C83.7139779,34.4098483 79.4253604,30.1090277 74.1361231,30.1090277 C68.8468858,30.1090277 64.5582683,34.4098483 64.5582683,39.7162198 C64.5582683,45.0225912 68.8468858,49.3234118 74.1361231,49.3234118 Z M74.1361231,54.3997902 C72.567313,54.3997902 71.0323349,54.1450267 69.56747,53.6519129 C69.6179151,54.112648 69.6435165,54.5657531 69.6435165,55.015374 C69.6435165,58.0125791 68.7751603,60.8065028 67.1697141,63.1718285 C71.7654158,66.1698167 75.1478142,70.8913032 76.7726586,76.4064368 C81.0096884,76.2766589 84.8779038,75.7653466 87.7497754,74.9771242 C89.2137988,74.575304 90.3546861,74.1168897 91.0845157,73.6520772 C91.58778,73.3315591 91.7433172,73.128046 91.7433172,73.1327935 L91.7443246,66.746629 C91.5132938,60.3752026 88.0161361,54.6319929 82.7159599,51.598271 C80.2194983,53.3915434 77.2353613,54.3997902 74.1361231,54.3997902 Z M89.3918678,41.650495 C89.0079937,41.650495 88.7633677,41.64935 88.549907,41.6446257 C88.2819931,43.9389415 87.4619152,46.1121059 86.1698737,48.011485 C91.5018683,51.4978064 95.1905177,57.1571313 96.3198519,63.5718669 C99.4375033,63.2794126 102.1817,62.7580273 104.196838,62.0844033 C106.08381,61.4536229 106.999062,60.7797537 106.999062,60.6519045 L107,54.2637921 C106.769366,47.6720213 103.298031,41.8977693 97.9717137,38.8489693 C95.4752502,40.6422458 92.4911098,41.650495 89.3918678,41.650495 Z M83.8478002,12.607192 C83.8478002,7.27929897 79.5806432,3 74.2699454,3 C68.9592476,3 64.6920906,7.27929897 64.6917303,12.640436 C64.5770559,17.9304711 68.8132157,22.2143841 74.1361231,22.2143841 C74.6767102,22.2143841 75.2183442,22.1614402 75.7622187,22.0550059 C77.1645427,18.1963814 80.0264594,15.1500894 83.7568396,13.6239427 C83.8163808,13.2259562 83.8478002,12.8863148 83.8478002,12.607192 Z M88.43368,36.5005148 C87.4328127,31.8939637 84.2230146,28.0778288 79.8436944,26.1967716 C80.2314465,21.1859644 84.3691944,17.2505961 89.3585827,17.3593697 C94.7025656,17.3597325 98.9697226,21.6390315 98.9697226,26.9669245 C98.9697226,32.2948176 94.7025656,36.5741166 89.3918678,36.5741166 C89.0963623,36.5741166 88.8061236,36.5514782 88.43368,36.5005148 Z M55,37 C49.4771525,37 45,32.5228475 45,27 C45,21.4771525 49.4771525,17 55,17 C60.5228475,17 65,21.4771525 65,27 C65,32.5228475 60.5228475,37 55,37 Z" id="Combined-Shape" fill="#FFFFFF"></path>
                    </g>
                </g>
            </g>
        </g>
    </g>
</svg>