<?xml version="1.0" encoding="UTF-8"?>
<svg width="144px" height="144px" viewBox="0 0 144 144" version="1.1" xmlns="http://www.w3.org/2000/svg" xmlns:xlink="http://www.w3.org/1999/xlink">
    <!-- Generator: Sketch 51.3 (57544) - http://www.bohemiancoding.com/sketch -->
    <title>Event_Support_Icon</title>
    <desc>Created with Sketch.</desc>
    <defs>
        <circle id="path-1" cx="72" cy="72" r="72"></circle>
        <linearGradient x1="37.9422433%" y1="33.3968496%" x2="75.9137835%" y2="71.9464558%" id="linearGradient-3">
            <stop stop-color="#C45A1D" offset="0%"></stop>
            <stop stop-color="#C45A1D" stop-opacity="0" offset="100%"></stop>
        </linearGradient>
    </defs>
    <g id="Event_Support_Icon" stroke="none" stroke-width="1" fill="none" fill-rule="evenodd">
        <g id="Group-2">
            <g id="Path-3">
                <mask id="mask-2" fill="white">
                    <use xlink:href="#path-1"></use>
                </mask>
                <use id="Mask" fill="#F26F21" fill-rule="nonzero" xlink:href="#path-1"></use>
                <circle id="Mask" stroke="#C45A1D" stroke-width="5" opacity="0.347321429" fill-rule="nonzero" mask="url(#mask-2)" cx="75" cy="75" r="69.5"></circle>
                <circle id="Mask" stroke="#F6A16F" stroke-width="5" fill-rule="nonzero" mask="url(#mask-2)" cx="72" cy="72" r="69.5"></circle>
                <g id="Group-6" mask="url(#mask-2)" fill-rule="nonzero">
                    <g transform="translate(20.000000, 27.000000)">
                        <polygon id="Rectangle-5" fill="url(#linearGradient-3)" points="92.6647139 17 140 64 81 125 34.7788497 86.7788497 -2.27373675e-12 58 9 35 9 29 14 17 23 11 38 2 54 15 56 15 62 17 62 11 77 3"></polygon>
                        <path d="M18.4491686,38.5105389 C18.2045175,38.5148109 17.9280971,38.5162919 17.6071941,38.5162919 C14.5137248,38.5162919 11.5349286,37.5117951 9.041303,35.7247784 C3.65984482,38.9040274 0.228147518,44.580764 0,51.0759523 L0,57.5177014 C0,57.6455506 0.915251992,58.3194197 2.80222399,58.9502002 C4.81736201,59.6238242 7.56155865,60.1452095 10.67921,60.4376638 C11.8085443,54.0229281 15.4971937,48.3636033 20.8291883,44.8772819 C19.5371686,42.9779349 18.7170966,40.8048119 18.4491686,38.5105389 Z M51.999531,61.6225661 C57.2887683,61.6225661 61.5773858,57.3217455 61.5773858,52.015374 C61.5773858,46.7090026 57.2887683,42.408182 51.999531,42.408182 C46.7102937,42.408182 42.4216762,46.7090026 42.4216762,52.015374 C42.4216762,57.3217455 46.7102937,61.6225661 51.999531,61.6225661 Z M51.999531,66.6989445 C48.9060617,66.6989445 45.9272655,65.6944477 43.4336399,63.907431 C38.0521817,67.08668 34.6204844,72.7634166 34.3923369,79.2586049 L34.3923369,85.700354 C34.3923369,85.7015445 34.576206,85.9292454 35.1502449,86.2724108 C35.9644914,86.7591742 37.2274628,87.2309469 38.8398448,87.6371422 C42.2686944,88.5009467 46.9662189,89 51.999531,89 C57.0328431,89 61.7303676,88.5009467 65.1592172,87.6371422 C66.7715992,87.2309469 68.0345706,86.7591742 68.848817,86.2724108 C69.422856,85.9292454 69.6067251,85.7015445 69.6067251,85.700354 L69.6076631,79.3122416 C69.3770292,72.7204708 65.9056946,66.9462188 60.5793769,63.8974188 C58.0829134,65.6906953 55.0987729,66.6989445 51.999531,66.6989445 Z M37.4893677,52.015374 C37.4893677,51.5570752 37.5121124,51.1038033 37.5567067,50.654841 C36.0944669,51.1460352 34.5624631,51.3997902 32.9967612,51.3997902 C29.9032919,51.3997902 26.9244957,50.3952934 24.4308701,48.6082768 C19.0494119,51.7875257 15.6177146,57.4642624 15.3895671,63.9594506 L15.3895671,70.4011998 C15.3895671,70.3825154 15.5417423,70.5763279 16.0500701,70.889577 C16.7900145,71.3455562 17.9475944,71.794942 19.4389141,72.192201 C22.2981624,72.9538499 26.1702409,73.4732774 30.4402653,73.6572504 C31.8320065,68.1019128 35.217063,63.3534127 39.9810016,60.1876526 C38.3820753,57.8137626 37.4893677,54.9442003 37.4893677,52.015374 Z M32.8629389,46.3234118 C38.1521762,46.3234118 42.4407937,42.0225912 42.4407937,36.7162198 C42.4407937,31.4098483 38.1521762,27.1090277 32.8629389,27.1090277 C27.5737016,27.1090277 23.2850841,31.4098483 23.2850841,36.7162198 C23.2850841,42.0225912 27.5737016,46.3234118 32.8629389,46.3234118 Z M32.8629389,19.2143841 C38.1736367,19.2143841 42.4407937,14.9350851 42.4407937,9.60719203 C42.4407937,4.27929897 38.1736367,0 32.8629389,0 C27.5522411,0 23.2850841,4.27929897 23.2850841,9.60719203 C23.2850841,9.95155367 23.3077428,10.2359504 23.3710494,10.6320826 C27.0095966,12.168221 29.8445801,15.2235268 31.2368429,19.0550058 C31.7807175,19.1614401 32.3223516,19.2143841 32.8629389,19.2143841 Z M17.6071941,14.3597325 C12.2964963,14.3597325 8.02933934,18.6390315 8.02933934,23.9669245 C8.02933934,29.2948176 12.2964963,33.5741166 17.6071941,33.5741166 C17.9072986,33.5741166 18.2198692,33.5518492 18.5633186,33.5077699 C19.5682133,28.8505316 22.805422,24.9576074 27.1532344,23.1733508 C26.7542566,18.2204185 22.6514547,14.3597325 17.6071941,14.3597325 Z M71.1361231,46.3234118 C76.4253604,46.3234118 80.7139779,42.0225912 80.7139779,36.7162198 C80.7139779,31.4098483 76.4253604,27.1090277 71.1361231,27.1090277 C65.8468858,27.1090277 61.5582683,31.4098483 61.5582683,36.7162198 C61.5582683,42.0225912 65.8468858,46.3234118 71.1361231,46.3234118 Z M71.1361231,51.3997902 C69.567313,51.3997902 68.0323349,51.1450267 66.56747,50.6519129 C66.6179151,51.112648 66.6435165,51.5657531 66.6435165,52.015374 C66.6435165,55.0125791 65.7751603,57.8065028 64.1697141,60.1718285 C68.7654158,63.1698167 72.1478142,67.8913032 73.7726586,73.4064368 C78.0096884,73.2766589 81.8779038,72.7653466 84.7497754,71.9771242 C86.2137988,71.575304 87.3546861,71.1168897 88.0845157,70.6520772 C88.58778,70.3315591 88.7433172,70.128046 88.7433172,70.1327935 L88.7443246,63.746629 C88.5132938,57.3752026 85.0161361,51.6319929 79.7159599,48.598271 C77.2194983,50.3915434 74.2353613,51.3997902 71.1361231,51.3997902 Z M86.3918678,38.650495 C86.0079937,38.650495 85.7633677,38.64935 85.549907,38.6446257 C85.2819931,40.9389415 84.4619152,43.1121059 83.1698737,45.011485 C88.5018683,48.4978064 92.1905177,54.1571313 93.3198519,60.5718669 C96.4375033,60.2794126 99.1817,59.7580273 101.196838,59.0844033 C103.08381,58.4536229 103.999062,57.7797537 103.999062,57.6519045 L104,51.2637921 C103.769366,44.6720213 100.298031,38.8977693 94.9717137,35.8489693 C92.4752502,37.6422458 89.4911098,38.650495 86.3918678,38.650495 Z M80.8478002,9.60719203 C80.8478002,4.27929897 76.5806432,0 71.2699454,0 C65.9592476,0 61.6920906,4.27929897 61.6917303,9.64043604 C61.5770559,14.9304711 65.8132157,19.2143841 71.1361231,19.2143841 C71.6767102,19.2143841 72.2183442,19.1614402 72.7622187,19.0550059 C74.1645427,15.1963814 77.0264594,12.1500894 80.7568396,10.6239427 C80.8163808,10.2259562 80.8478002,9.88631478 80.8478002,9.60719203 Z M85.43368,33.5005148 C84.4328127,28.8939637 81.2230146,25.0778288 76.8436944,23.1967716 C77.2314465,18.1859644 81.3691944,14.2505961 86.3585827,14.3593697 C91.7025656,14.3597325 95.9697226,18.6390315 95.9697226,23.9669245 C95.9697226,29.2948176 91.7025656,33.5741166 86.3918678,33.5741166 C86.0963623,33.5741166 85.8061236,33.5514782 85.43368,33.5005148 Z M52,34 C46.4771525,34 42,29.5228475 42,24 C42,18.4771525 46.4771525,14 52,14 C57.5228475,14 62,18.4771525 62,24 C62,29.5228475 57.5228475,34 52,34 Z" id="Combined-Shape" fill="#FFFFFF"></path>
                    </g>
                </g>
            </g>
        </g>
    </g>
</svg>