<?xml version="1.0" encoding="UTF-8"?>
<svg width="1440px" height="663px" viewBox="0 0 1440 663" version="1.1" xmlns="http://www.w3.org/2000/svg" xmlns:xlink="http://www.w3.org/1999/xlink">
    <!-- Generator: Sketch 51.3 (57544) - http://www.bohemiancoding.com/sketch -->
    <title>gradient-texture</title>
    <desc>Created with Sketch.</desc>
    <defs>
        <rect id="path-1" x="0" y="0" width="1440" height="663"></rect>
        <linearGradient x1="40.1137153%" y1="59.9461622%" x2="47.8106106%" y2="38.1069374%" id="linearGradient-3">
            <stop stop-color="#FFA2D6" offset="0%"></stop>
            <stop stop-color="#FFFFFF" stop-opacity="0" offset="100%"></stop>
        </linearGradient>
        <linearGradient x1="32.1308975%" y1="57.564106%" x2="37.539385%" y2="25.3241183%" id="linearGradient-4">
            <stop stop-color="#FF91E0" offset="0%"></stop>
            <stop stop-color="#FFFFFF" stop-opacity="0" offset="100%"></stop>
        </linearGradient>
    </defs>
    <g id="Page-1" stroke="none" stroke-width="1" fill="none" fill-rule="evenodd">
        <g id="gradient-texture">
            <mask id="mask-2" fill="white">
                <use xlink:href="#path-1"></use>
            </mask>
            <use id="Rectangle-3" fill="#0E4163" fill-rule="nonzero" xlink:href="#path-1"></use>
            <path d="M-399.770147,142.696512 L-399.719429,142.696512 L-439.949282,183.113062 L-440,183.113062 L-440,-39.5448292 L-399.770147,-79.9613789 L-399.770147,142.696512 Z M-339.34929,81.9784008 L-339.298572,81.9784008 L-379.528425,122.403575 L-379.579143,122.403575 L-379.579143,-100.245691 L-339.34929,-140.670865 L-339.34929,81.9784008 Z M-278.928434,21.2657825 L-278.877715,21.2657825 L-319.107568,61.6940891 L-319.158286,61.6940891 L-319.158286,-160.982618 L-278.948721,-201.380351 L-278.928434,21.2657825 Z M-215.793162,-40.2751342 L-215.742444,-40.2751342 L-255.972297,0.141415506 L-256.023015,0.141415506 L-256.023015,-222.516475 L-215.793162,-262.933025 L-215.793162,-40.2751342 Z M-155.372306,-100.993245 L-155.321587,-100.993245 L-195.55144,-60.5680708 L-195.602158,-60.5680708 L-195.602158,-283.217337 L-155.372306,-323.642511 L-155.372306,-100.993245 Z M-94.9514489,-161.705864 L-94.9007305,-161.705864 L-135.130583,-121.277557 L-135.181302,-121.277557 L-135.181302,-343.954264 L-94.9717363,-384.351997 L-94.9514489,-161.705864 Z M-34.8321938,-220.230764 L-34.7814754,-220.230764 L-75.0113281,-179.814214 L-75.0620465,-179.814214 L-75.0620465,-402.472105 L-34.8321938,-442.888655 L-34.8321938,-220.230764 Z M25.588663,-280.948875 L25.6393814,-280.948875 L-14.5904714,-240.523701 L-14.6411898,-240.523701 L-14.6411898,-463.172967 L25.588663,-503.598141 L25.588663,-280.948875 Z M86.0095197,-341.661494 L86.0602382,-341.661494 L45.8303854,-301.233187 L45.779667,-301.233187 L45.779667,-523.909894 L85.9892324,-564.307627 L86.0095197,-341.661494 Z M283.860179,832.35887 L283.910897,832.35887 L243.681044,872.77542 L243.630326,872.77542 L243.630326,650.117529 L283.860179,609.700979 L283.860179,832.35887 Z M344.281036,771.640759 L344.331754,771.640759 L304.101901,812.065934 L304.051183,812.065934 L304.051183,589.416668 L344.281036,548.991493 L344.281036,771.640759 Z M404.701892,710.928141 L404.752611,710.928141 L364.522758,751.356447 L364.47204,751.356447 L364.47204,528.67974 L404.681605,488.282007 L404.701892,710.928141 Z M467.837164,649.387224 L467.887882,649.387224 L427.658029,689.803774 L427.607311,689.803774 L427.607311,467.145883 L467.837164,426.729333 L467.837164,649.387224 Z M528.25802,588.669113 L528.308739,588.669113 L488.078886,629.094288 L488.028168,629.094288 L488.028168,406.445022 L528.25802,366.019847 L528.25802,588.669113 Z M588.678877,527.956495 L588.729596,527.956495 L548.499743,568.384801 L548.449024,568.384801 L548.449024,345.708094 L588.65859,305.310361 L588.678877,527.956495 Z M648.798132,469.431594 L648.848851,469.431594 L608.618998,509.848144 L608.56828,509.848144 L608.56828,287.190253 L648.798132,246.773703 L648.798132,469.431594 Z M709.218989,408.713483 L709.269707,408.713483 L669.039855,449.138658 L668.989136,449.138658 L668.989136,226.489392 L709.218989,186.064217 L709.218989,408.713483 Z M769.639846,348.000865 L769.690564,348.000865 L729.460711,388.429171 L729.409993,388.429171 L729.409993,165.752464 L769.619558,125.354731 L769.639846,348.000865 Z M824.732407,288.470626 L824.783126,288.470626 L784.553273,328.887175 L784.502555,328.887175 L784.502555,106.229284 L824.732407,65.8127348 L824.732407,288.470626 Z M885.153264,227.752514 L885.203983,227.752514 L844.97413,268.177689 L844.923411,268.177689 L844.923411,45.528423 L885.153264,5.10324852 L885.153264,227.752514 Z M945.574121,167.039896 L945.624839,167.039896 L905.394987,207.468203 L905.344268,207.468203 L905.344268,-15.2085047 L945.553833,-55.6062377 L945.574121,167.039896 Z M1008.70939,105.498979 L1008.76011,105.498979 L968.530258,145.915529 L968.479539,145.915529 L968.479539,-76.7423616 L1008.70939,-117.158911 L1008.70939,105.498979 Z M1069.13025,44.7808684 L1069.18097,44.7808684 L1028.95111,85.2060429 L1028.9004,85.2060429 L1028.9004,-137.443223 L1069.13025,-177.868398 L1069.13025,44.7808684 Z M1129.55111,-15.9317499 L1129.60182,-15.9317499 L1089.37197,24.4965566 L1089.32125,24.4965566 L1089.32125,-198.180151 L1129.53082,-238.577884 L1129.55111,-15.9317499 Z M1189.67036,-74.4566505 L1189.72108,-74.4566505 L1149.49123,-34.0401008 L1149.44051,-34.0401008 L1149.44051,-256.697992 L1189.67036,-297.114541 L1189.67036,-74.4566505 Z M1250.09122,-135.174762 L1250.14194,-135.174762 L1209.91208,-94.7495871 L1209.86136,-94.7495871 L1209.86136,-317.398853 L1250.09122,-357.824028 L1250.09122,-135.174762 Z M1310.51207,-195.88738 L1310.56279,-195.88738 L1270.33294,-155.459073 L1270.28222,-155.459073 L1270.28222,-378.135781 L1310.49179,-418.533514 L1310.51207,-195.88738 Z M44.5895647,606.157659 L44.6402831,606.157659 L4.41043035,646.574209 L4.35971193,646.574209 L4.35971193,423.916318 L44.5895647,383.499769 L44.5895647,606.157659 Z M105.010421,545.439548 L105.06114,545.439548 L64.8312871,585.864723 L64.7805687,585.864723 L64.7805687,363.215457 L105.010421,322.790282 L105.010421,545.439548 Z M165.431278,484.72693 L165.481997,484.72693 L125.252144,525.155237 L125.201425,525.155237 L125.201425,302.478529 L165.410991,262.080796 L165.431278,484.72693 Z M225.550533,427.207368 L225.601252,427.207368 L185.371399,467.623918 L185.320681,467.623918 L185.320681,244.966027 L225.550533,204.549477 L225.550533,427.207368 Z M285.97139,366.489257 L286.022109,366.489257 L245.792256,406.914432 L245.741537,406.914432 L245.741537,184.265166 L285.97139,143.839991 L285.97139,366.489257 Z M346.392247,305.776639 L346.442965,305.776639 L306.213113,346.204945 L306.162394,346.204945 L306.162394,123.528238 L346.371959,83.1305049 L346.392247,305.776639 Z M406.511502,247.251738 L406.56222,247.251738 L366.332368,287.668288 L366.281649,287.668288 L366.281649,65.0103972 L406.511502,24.5938475 L406.511502,247.251738 Z M466.932359,186.533627 L466.983077,186.533627 L426.753224,226.958802 L426.702506,226.958802 L426.702506,4.30953573 L466.932359,-36.1156388 L466.932359,186.533627 Z M527.353216,125.821009 L527.403934,125.821009 L487.174081,166.249315 L487.123363,166.249315 L487.123363,-56.427392 L527.332928,-96.825125 L527.353216,125.821009 Z M585.461793,62.2694147 L585.512512,62.2694147 L545.282659,102.685964 L545.23194,102.685964 L545.23194,-119.971926 L585.461793,-160.388476 L585.461793,62.2694147 Z M645.88265,1.55130364 L645.933368,1.55130364 L605.703516,41.9764782 L605.652797,41.9764782 L605.652797,-180.672788 L645.88265,-221.097962 L645.88265,1.55130364 Z M706.303507,-59.1613147 L706.354225,-59.1613147 L666.124372,-18.7330081 L666.073654,-18.7330081 L666.073654,-241.409715 L706.283219,-281.807449 L706.303507,-59.1613147 Z M766.422762,-116.680877 L766.47348,-116.680877 L726.243628,-76.2643268 L726.192909,-76.2643268 L726.192909,-298.922218 L766.422762,-339.338767 L766.422762,-116.680877 Z M826.843619,-177.398988 L826.894337,-177.398988 L786.664484,-136.973813 L786.613766,-136.973813 L786.613766,-359.623079 L826.843619,-400.048254 L826.843619,-177.398988 Z M887.264475,-238.111606 L887.315194,-238.111606 L847.085341,-197.683299 L847.034623,-197.683299 L847.034623,-420.360007 L887.244188,-460.75774 L887.264475,-238.111606 Z M947.383731,-296.636506 L947.434449,-296.636506 L907.204596,-256.219957 L907.153878,-256.219957 L907.153878,-478.877848 L947.383731,-519.294397 L947.383731,-296.636506 Z M1007.80459,-357.354618 L1007.85531,-357.354618 L967.625453,-316.929443 L967.574735,-316.929443 L967.574735,-539.578709 L1007.80459,-580.003883 L1007.80459,-357.354618 Z M1068.22544,-418.067236 L1068.27616,-418.067236 L1028.04631,-377.638929 L1027.99559,-377.638929 L1027.99559,-600.315637 L1068.20516,-640.71337 L1068.22544,-418.067236 Z M728.219891,1295.82002 L728.270609,1295.82002 L688.040756,1336.23657 L687.990038,1336.23657 L687.990038,1113.57868 L728.219891,1073.16213 L728.219891,1295.82002 Z M788.640747,1235.10191 L788.691466,1235.10191 L748.461613,1275.52708 L748.410895,1275.52708 L748.410895,1052.87782 L788.640747,1012.45264 L788.640747,1235.10191 Z M849.061604,1174.38929 L849.112323,1174.38929 L808.88247,1214.81759 L808.831751,1214.81759 L808.831751,992.140888 L849.041317,951.743154 L849.061604,1174.38929 Z M909.180859,1116.86973 L909.231578,1116.86973 L869.001725,1157.28628 L868.951007,1157.28628 L868.951007,934.628385 L909.180859,894.211836 L909.180859,1116.86973 Z M969.601716,1056.15162 L969.652435,1056.15162 L929.422582,1096.57679 L929.371863,1096.57679 L929.371863,873.927524 L969.601716,833.502349 L969.601716,1056.15162 Z M1030.02257,995.438997 L1030.07329,995.438997 L989.843439,1035.8673 L989.79272,1035.8673 L989.79272,813.190596 L1030.00229,772.792863 L1030.02257,995.438997 Z M1090.14183,936.914097 L1090.19255,936.914097 L1049.96269,977.330646 L1049.91198,977.330646 L1049.91198,754.672756 L1090.14183,714.256206 L1090.14183,936.914097 Z M1150.56268,876.195985 L1150.6134,876.195985 L1110.38355,916.62116 L1110.33283,916.62116 L1110.33283,693.971894 L1150.56268,653.54672 L1150.56268,876.195985 Z M1210.98354,815.483367 L1211.03426,815.483367 L1170.80441,855.911674 L1170.75369,855.911674 L1170.75369,633.234966 L1210.96325,592.837233 L1210.98354,815.483367 Z M-156.42746,141.213138 L-156.42746,384.783808 L-196.708031,424.524074 L-196.708031,180.953405 L-156.42746,141.213138 Z M-96.0066031,80.5036521 L-96.0066031,324.074321 L-136.287174,363.814588 L-136.287174,120.243919 L-96.0066031,80.5036521 Z M-35.5857463,19.7941659 L-35.5857463,263.364835 L-75.8663175,303.105102 L-75.8663175,59.5344326 L-35.5857463,19.7941659 Z M24.5335088,-37.7371528 L24.5335088,205.833516 L-15.7470624,245.573783 L-15.7470624,2.00311386 L24.5335088,-37.7371528 Z M84.9543656,-98.4466391 L84.9543656,145.12403 L44.6737944,184.864297 L44.6737944,-58.7063724 L84.9543656,-98.4466391 Z M145.375222,-159.156125 L145.375222,84.4145438 L105.094651,124.154811 L105.094651,-119.415859 L145.375222,-159.156125 Z M205.494477,-217.692783 L205.494477,25.8778864 L165.213906,65.6181531 L165.213906,-177.952516 L205.494477,-217.692783 Z M265.915334,-278.402269 L265.915334,-34.8315999 L225.634763,4.90866683 L225.634763,-238.662002 L265.915334,-278.402269 Z M326.336191,-339.111755 L326.336191,-95.5410861 L286.05562,-55.8008194 L286.05562,-299.371489 L326.336191,-339.111755 Z M384.444769,-402.675106 L384.444769,-159.104437 L344.164198,-119.36417 L344.164198,-362.93484 L384.444769,-402.675106 Z M444.865625,-463.384593 L444.865625,-219.813923 L404.585054,-180.073657 L404.585054,-423.644326 L444.865625,-463.384593 Z M505.286482,-524.094079 L505.286482,-280.52341 L465.005911,-240.783143 L465.005911,-484.353812 L505.286482,-524.094079 Z M565.405737,-581.625398 L565.405737,-338.054728 L525.125166,-298.314462 L525.125166,-541.885131 L565.405737,-581.625398 Z M625.826594,-642.334884 L625.826594,-398.764215 L585.546023,-359.023948 L585.546023,-602.594617 L625.826594,-642.334884 Z M686.247451,-703.04437 L686.247451,-459.473701 L645.96688,-419.733434 L645.96688,-663.304103 L686.247451,-703.04437 Z M746.366706,-761.581027 L746.366706,-518.010358 L706.086135,-478.270092 L706.086135,-721.840761 L746.366706,-761.581027 Z M806.787563,-822.290514 L806.787563,-578.719845 L766.506992,-538.979578 L766.506992,-782.550247 L806.787563,-822.290514 Z M867.20842,-883 L867.20842,-639.429331 L826.927848,-599.689064 L826.927848,-843.259733 L867.20842,-883 Z M527.202866,830.875497 L527.202866,1074.44617 L486.922295,1114.18643 L486.922295,870.615763 L527.202866,830.875497 Z M587.623723,770.16601 L587.623723,1013.73668 L547.343152,1053.47695 L547.343152,809.906277 L587.623723,770.16601 Z M648.04458,709.456524 L648.04458,953.027193 L607.764009,992.76746 L607.764009,749.196791 L648.04458,709.456524 Z M708.163835,651.925205 L708.163835,895.495875 L667.883264,935.236141 L667.883264,691.665472 L708.163835,651.925205 Z M768.584692,591.215719 L768.584692,834.786388 L728.30412,874.526655 L728.30412,630.955986 L768.584692,591.215719 Z M829.005548,530.506233 L829.005548,774.076902 L788.724977,813.817169 L788.724977,570.2465 L829.005548,530.506233 Z M889.124804,471.969576 L889.124804,715.540245 L848.844232,755.280511 L848.844232,511.709842 L889.124804,471.969576 Z M949.54566,411.260089 L949.54566,654.830758 L909.265089,694.571025 L909.265089,451.000356 L949.54566,411.260089 Z M1009.96652,350.550603 L1009.96652,594.121272 L969.685946,633.861539 L969.685946,390.29087 L1009.96652,350.550603 Z M1068.07509,286.987252 L1068.07509,530.557921 L1027.79452,570.298188 L1027.79452,326.727519 L1068.07509,286.987252 Z M1128.49595,226.277766 L1128.49595,469.848435 L1088.21538,509.588702 L1088.21538,266.018032 L1128.49595,226.277766 Z M1188.91681,165.56828 L1188.91681,409.138949 L1148.63624,448.879215 L1148.63624,205.308546 L1188.91681,165.56828 Z M1249.03606,108.036961 L1249.03606,351.60763 L1208.75549,391.347897 L1208.75549,147.777228 L1249.03606,108.036961 Z M1309.45692,47.3274745 L1309.45692,290.898144 L1269.17635,330.63841 L1269.17635,87.0677412 L1309.45692,47.3274745 Z M1369.87778,-13.3820117 L1369.87778,230.188657 L1329.59721,269.928924 L1329.59721,26.358255 L1369.87778,-13.3820117 Z M1429.99703,-71.9186691 L1429.99703,171.652 L1389.71646,211.392267 L1389.71646,-32.1784024 L1429.99703,-71.9186691 Z M1490.41789,-132.628155 L1490.41789,110.942514 L1450.13732,150.68278 L1450.13732,-92.8878887 L1490.41789,-132.628155 Z M1550.83875,-193.337642 L1550.83875,50.2330275 L1510.55817,89.9732942 L1510.55817,-153.597375 L1550.83875,-193.337642 Z M1264.47784,755.143717 L1264.52829,755.143717 L1224.51207,795.34564 L1224.46162,795.34564 L1224.46162,573.870144 L1264.47784,533.668221 L1264.47784,755.143717 Z M1324.57784,694.748041 L1324.62829,694.748041 L1284.61207,734.958543 L1284.56162,734.958543 L1284.56162,513.491626 L1324.57784,473.281124 L1324.57784,694.748041 Z M1384.67784,634.357829 L1384.72829,634.357829 L1344.71207,674.571447 L1344.66162,674.571447 L1344.66162,453.077234 L1384.65766,412.894027 L1384.67784,634.357829 Z M1444.47784,577.143717 L1444.52829,577.143717 L1404.51207,617.34564 L1404.46162,617.34564 L1404.46162,395.870144 L1444.47784,355.668221 L1444.47784,577.143717 Z M1504.57784,516.748041 L1504.62829,516.748041 L1464.61207,556.958543 L1464.56162,556.958543 L1464.56162,335.491626 L1504.57784,295.281124 L1504.57784,516.748041 Z M1564.67784,456.357829 L1564.72829,456.357829 L1524.71207,496.571447 L1524.66162,496.571447 L1524.66162,275.077234 L1564.65766,234.894027 L1564.67784,456.357829 Z M1624.47784,398.143717 L1624.52829,398.143717 L1584.51207,438.34564 L1584.46162,438.34564 L1584.46162,216.870144 L1624.47784,176.668221 L1624.47784,398.143717 Z M1684.57784,337.748041 L1684.62829,337.748041 L1644.61207,377.958543 L1644.56162,377.958543 L1644.56162,156.491626 L1684.57784,116.281124 L1684.57784,337.748041 Z M1744.67784,277.357829 L1744.72829,277.357829 L1704.71207,317.571447 L1704.66162,317.571447 L1704.66162,96.0772336 L1744.65766,55.8940272 L1744.67784,277.357829 Z" id="Combined-Shape" fill="url(#linearGradient-3)" opacity="0.051953125" mask="url(#mask-2)"></path>
            <path d="M-440,184.410176 L-399.876961,143.937186 L-158.036002,143.937186 L-198.169157,184.410176 L-440,184.410176 Z M-379.579143,123.70069 L-339.454665,83.2276993 L-97.615145,83.2276993 L-137.739624,123.70069 L-379.579143,123.70069 Z M-279.033808,22.518213 L-37.1942883,22.518213 L-77.3288839,62.9912039 L-319.158286,62.9912039 L-279.033808,22.518213 Z M-256.023015,1.43853031 L-215.899976,-39.0344605 L25.940983,-39.0344605 L-14.1921726,1.43853031 L-256.023015,1.43853031 Z M-195.602158,-59.270956 L-155.47768,-99.7439468 L86.3618398,-99.7439468 L46.2373612,-59.270956 L-195.602158,-59.270956 Z M-95.0568231,-160.453433 L146.782697,-160.453433 L106.648101,-119.980442 L-135.181302,-119.980442 L-95.0568231,-160.453433 Z M-75.0620465,-178.5171 L-34.9390076,-218.99009 L206.901952,-218.99009 L166.768796,-178.5171 L-75.0620465,-178.5171 Z M-14.6411898,-239.226586 L25.4832888,-279.699577 L267.322808,-279.699577 L227.19833,-239.226586 L-14.6411898,-239.226586 Z M85.9041455,-340.409063 L327.743665,-340.409063 L287.60907,-299.936072 L45.779667,-299.936072 L85.9041455,-340.409063 Z M243.630326,874.072535 L283.753365,833.599544 L525.594324,833.599544 L485.461169,874.072535 L243.630326,874.072535 Z M304.051183,813.363048 L344.175661,772.890058 L586.015181,772.890058 L545.890702,813.363048 L304.051183,813.363048 Z M404.596518,712.180571 L646.436038,712.180571 L606.301442,752.653562 L364.47204,752.653562 L404.596518,712.180571 Z M427.607311,691.100889 L467.73035,650.627898 L709.571309,650.627898 L669.438153,691.100889 L427.607311,691.100889 Z M488.028168,630.391402 L528.152646,589.918412 L769.992166,589.918412 L729.867687,630.391402 L488.028168,630.391402 Z M588.573503,529.208925 L830.413023,529.208925 L790.278427,569.681916 L548.449024,569.681916 L588.573503,529.208925 Z M608.56828,511.145259 L648.691318,470.672268 L890.532278,470.672268 L850.399122,511.145259 L608.56828,511.145259 Z M668.989136,450.435772 L709.113615,409.962782 L950.953134,409.962782 L910.828656,450.435772 L668.989136,450.435772 Z M769.534472,349.253295 L1011.37399,349.253295 L971.239396,389.726286 L729.409993,389.726286 L769.534472,349.253295 Z M784.502555,330.18429 L824.625593,289.711299 L1066.46655,289.711299 L1026.3334,330.18429 L784.502555,330.18429 Z M844.923411,269.474804 L885.04789,229.001813 L1126.88741,229.001813 L1086.76293,269.474804 L844.923411,269.474804 Z M945.468747,168.292327 L1187.30827,168.292327 L1147.17367,208.765318 L905.344268,208.765318 L945.468747,168.292327 Z M968.479539,147.212644 L1008.60258,106.739653 L1250.44354,106.739653 L1210.31038,147.212644 L968.479539,147.212644 Z M1028.9004,86.5031577 L1069.02487,46.0301668 L1310.86439,46.0301668 L1270.73992,86.5031577 L1028.9004,86.5031577 Z M1129.44573,-14.6793194 L1371.28525,-14.6793194 L1331.15066,25.7936714 L1089.32125,25.7936714 L1129.44573,-14.6793194 Z M1149.44051,-32.742986 L1189.56355,-73.2159768 L1431.40451,-73.2159768 L1391.27135,-32.742986 L1149.44051,-32.742986 Z M1209.86136,-93.4524723 L1249.98584,-133.925463 L1491.82536,-133.925463 L1451.70088,-93.4524723 L1209.86136,-93.4524723 Z M1310.4067,-194.634949 L1552.24622,-194.634949 L1512.11162,-154.161959 L1270.28222,-154.161959 L1310.4067,-194.634949 Z M4.35971193,647.871324 L44.4827508,607.398333 L286.32371,607.398333 L246.190554,647.871324 L4.35971193,647.871324 Z M64.7805687,587.161838 L104.905047,546.688847 L346.744567,546.688847 L306.620088,587.161838 L64.7805687,587.161838 Z M165.325904,485.979361 L407.165424,485.979361 L367.030828,526.452351 L125.201425,526.452351 L165.325904,485.979361 Z M185.320681,468.921033 L225.443719,428.448042 L467.284679,428.448042 L427.151523,468.921033 L185.320681,468.921033 Z M245.741537,408.211546 L285.866016,367.738556 L527.705536,367.738556 L487.581057,408.211546 L245.741537,408.211546 Z M346.286873,307.029069 L588.126392,307.029069 L547.991797,347.50206 L306.162394,347.50206 L346.286873,307.029069 Z M366.281649,288.965403 L406.404688,248.492412 L648.245647,248.492412 L608.112492,288.965403 L366.281649,288.965403 Z M426.702506,228.255916 L466.826985,187.782926 L708.666504,187.782926 L668.542026,228.255916 L426.702506,228.255916 Z M527.247841,127.073439 L769.087361,127.073439 L728.952765,167.54643 L487.123363,167.54643 L527.247841,127.073439 Z M545.23194,103.983079 L585.354979,63.5100884 L827.195939,63.5100884 L787.062783,103.983079 L545.23194,103.983079 Z M605.652797,43.273593 L645.777276,2.80060211 L887.616795,2.80060211 L847.492317,43.273593 L605.652797,43.273593 Z M706.198133,-57.9088841 L948.037652,-57.9088841 L907.903057,-17.4358933 L666.073654,-17.4358933 L706.198133,-57.9088841 Z M726.192909,-74.967212 L766.315948,-115.440203 L1008.15691,-115.440203 L968.023752,-74.967212 L726.192909,-74.967212 Z M786.613766,-135.676698 L826.738244,-176.149689 L1068.57776,-176.149689 L1028.45329,-135.676698 L786.613766,-135.676698 Z M887.159101,-236.859175 L1128.99862,-236.859175 L1088.86403,-196.386185 L847.034623,-196.386185 L887.159101,-236.859175 Z M907.153878,-254.922842 L947.276917,-295.395833 L1189.11788,-295.395833 L1148.98472,-254.922842 L907.153878,-254.922842 Z M967.574735,-315.632328 L1007.69921,-356.105319 L1249.53873,-356.105319 L1209.41425,-315.632328 L967.574735,-315.632328 Z M1068.12007,-416.814805 L1309.95959,-416.814805 L1269.82499,-376.341814 L1027.99559,-376.341814 L1068.12007,-416.814805 Z M687.990038,1337.53368 L728.113077,1297.06069 L969.954036,1297.06069 L929.820881,1337.53368 L687.990038,1337.53368 Z M748.410895,1276.8242 L788.535373,1236.35121 L1030.37489,1236.35121 L990.250414,1276.8242 L748.410895,1276.8242 Z M848.95623,1175.64172 L1090.79575,1175.64172 L1050.66115,1216.11471 L808.831751,1216.11471 L848.95623,1175.64172 Z M868.951007,1158.58339 L909.074046,1118.1104 L1150.915,1118.1104 L1110.78185,1158.58339 L868.951007,1158.58339 Z M929.371863,1097.8739 L969.496342,1057.40091 L1211.33586,1057.40091 L1171.21138,1097.8739 L929.371863,1097.8739 Z M1029.9172,996.691428 L1271.75672,996.691428 L1231.62212,1037.16442 L989.79272,1037.16442 L1029.9172,996.691428 Z M1049.91198,978.627761 L1090.03501,938.15477 L1331.87597,938.15477 L1291.74282,978.627761 L1049.91198,978.627761 Z M1110.33283,917.918275 L1150.45731,877.445284 L1392.29683,877.445284 L1352.17235,917.918275 L1110.33283,917.918275 Z M1210.87817,816.735798 L1452.71769,816.735798 L1412.58309,857.208789 L1170.75369,857.208789 L1210.87817,816.735798 Z M1228.86227,793.645438 L1268.98531,753.172447 L1510.82626,753.172447 L1470.69311,793.645438 L1228.86227,793.645438 Z M1289.28312,732.935951 L1329.4076,692.46296 L1571.24712,692.46296 L1531.12264,732.935951 L1289.28312,732.935951 Z M1389.82846,631.753474 L1631.66798,631.753474 L1591.53338,672.226465 L1349.70398,672.226465 L1389.82846,631.753474 Z M1409.82324,614.695146 L1449.94627,574.222155 L1691.78723,574.222155 L1651.65408,614.695146 L1409.82324,614.695146 Z M1470.24409,553.98566 L1510.36857,513.512669 L1752.20809,513.512669 L1712.08361,553.98566 L1470.24409,553.98566 Z M1570.78943,452.803183 L1812.62895,452.803183 L1772.49435,493.276174 L1530.66495,493.276174 L1570.78943,452.803183 Z M1590.7842,434.739516 L1630.90724,394.266526 L1872.7482,394.266526 L1832.61505,434.739516 L1590.7842,434.739516 Z M1651.20506,374.03003 L1691.32954,333.557039 L1933.16906,333.557039 L1893.04458,374.03003 L1651.20506,374.03003 Z M1751.7504,272.847553 L1993.58992,272.847553 L1953.45532,313.320544 L1711.62592,313.320544 L1751.7504,272.847553 Z M44.975396,384.213138 L44.975396,384.617262 L5.68710353,424.686129 L5.68710353,424.413346 L-196.708031,424.413346 L-157.419739,384.334376 L-157.419739,384.344479 L44.975396,384.213138 Z M105.396253,323.503652 L105.396253,323.897673 L66.1079603,363.976643 L66.1079603,363.693756 L-136.287174,363.693756 L-96.9988818,323.614786 L-96.9988818,323.624889 L105.396253,323.503652 Z M165.81711,262.986653 L165.81711,263.108224 L126.54541,303.267157 L126.54541,302.983491 L-75.8663175,302.983491 L-36.574804,262.794166 L-36.574804,262.804297 L165.81711,262.986653 Z M225.936365,205.262847 L225.936365,205.666971 L186.648072,245.735838 L186.648072,245.463054 L-15.7470624,245.463054 L23.5412301,205.384084 L23.5412301,205.394187 L225.936365,205.262847 Z M286.357221,144.553361 L286.357221,144.947382 L247.068929,185.026352 L247.068929,184.743465 L44.6737944,184.743465 L83.9620869,144.664495 L83.9620869,144.674598 L286.357221,144.553361 Z M346.778078,84.036362 L346.778078,84.1579329 L307.506379,124.316865 L307.506379,124.0332 L105.094651,124.0332 L144.386165,83.8438746 L144.386165,83.8540055 L346.778078,84.036362 Z M406.897333,25.3072172 L406.897333,25.7113409 L367.609041,65.7802081 L367.609041,65.5074245 L165.213906,65.5074245 L204.502199,25.4284543 L204.502199,25.4385574 L406.897333,25.3072172 Z M467.31819,-35.402269 L467.31819,-35.0082484 L428.029898,5.07072179 L428.029898,4.78783519 L225.634763,4.78783519 L264.923056,-35.291135 L264.923056,-35.2810319 L467.31819,-35.402269 Z M527.739047,-95.919268 L527.739047,-95.7976971 L488.467348,-55.6387645 L488.467348,-55.92243 L286.05562,-55.92243 L325.347133,-96.1117553 L325.347133,-96.1016244 L527.739047,-95.919268 Z M585.847625,-159.675106 L585.847625,-159.270983 L546.559332,-119.202115 L546.559332,-119.474899 L344.164198,-119.474899 L383.45249,-159.553869 L383.45249,-159.543766 L585.847625,-159.675106 Z M646.268481,-220.384593 L646.268481,-219.990572 L606.980189,-179.911602 L606.980189,-180.194488 L404.585054,-180.194488 L443.873347,-220.273459 L443.873347,-220.263355 L646.268481,-220.384593 Z M706.689338,-280.901592 L706.689338,-280.780021 L667.417639,-240.621088 L667.417639,-240.904754 L465.005911,-240.904754 L504.297425,-281.094079 L504.297425,-281.083948 L706.689338,-280.901592 Z M766.808593,-338.625398 L766.808593,-338.221274 L727.520301,-298.152407 L727.520301,-298.42519 L525.125166,-298.42519 L564.413459,-338.50416 L564.413459,-338.494057 L766.808593,-338.625398 Z M827.22945,-399.334884 L827.22945,-398.940863 L787.941157,-358.861893 L787.941157,-359.14478 L585.546023,-359.14478 L624.834315,-399.22375 L624.834315,-399.213647 L827.22945,-399.334884 Z M887.650307,-459.851883 L887.650307,-459.730312 L848.378607,-419.571379 L848.378607,-419.855045 L645.96688,-419.855045 L685.258393,-460.04437 L685.258393,-460.034239 L887.650307,-459.851883 Z M947.769562,-518.581027 L947.769562,-518.176904 L908.481269,-478.108037 L908.481269,-478.38082 L706.086135,-478.38082 L745.374427,-518.45979 L745.374427,-518.449687 L947.769562,-518.581027 Z M1008.19042,-579.290514 L1008.19042,-578.896493 L968.902126,-538.817523 L968.902126,-539.10041 L766.506992,-539.10041 L805.795284,-579.17938 L805.795284,-579.169277 L1008.19042,-579.290514 Z M1068.61128,-639.807513 L1068.61128,-639.685942 L1029.33958,-599.527009 L1029.33958,-599.810675 L826.927848,-599.810675 L866.219362,-640 L866.219362,-639.989869 L1068.61128,-639.807513 Z M728.605722,1073.8755 L728.605722,1074.27962 L689.31743,1114.34849 L689.31743,1114.0757 L486.922295,1114.0757 L526.210587,1073.99673 L526.210587,1074.00684 L728.605722,1073.8755 Z M789.026579,1013.16601 L789.026579,1013.56003 L749.738286,1053.639 L749.738286,1053.35611 L547.343152,1053.35611 L586.631444,1013.27714 L586.631444,1013.28725 L789.026579,1013.16601 Z M849.447436,952.649012 L849.447436,952.770582 L810.175736,992.929515 L810.175736,992.64585 L607.764009,992.64585 L647.055522,952.456524 L647.055522,952.466655 L849.447436,952.649012 Z M909.566691,894.925205 L909.566691,895.329329 L870.278398,935.398196 L870.278398,935.125413 L667.883264,935.125413 L707.171556,895.046443 L707.171556,895.056546 L909.566691,894.925205 Z M969.987547,834.215719 L969.987547,834.60974 L930.699255,874.68871 L930.699255,874.405823 L728.30412,874.405823 L767.592413,834.326853 L767.592413,834.336956 L969.987547,834.215719 Z M1030.4084,773.69872 L1030.4084,773.820291 L991.136705,813.979224 L991.136705,813.695558 L788.724977,813.695558 L828.016491,773.506233 L828.016491,773.516364 L1030.4084,773.69872 Z M1090.52766,714.969576 L1090.52766,715.373699 L1051.23937,755.442566 L1051.23937,755.169783 L848.844232,755.169783 L888.132525,715.090813 L888.132525,715.100916 L1090.52766,714.969576 Z M1150.94852,654.260089 L1150.94852,654.65411 L1111.66022,694.73308 L1111.66022,694.450194 L909.265089,694.450194 L948.553382,654.371223 L948.553382,654.381326 L1150.94852,654.260089 Z M1211.36937,593.74309 L1211.36937,593.864661 L1172.09767,634.023594 L1172.09767,633.739928 L969.685946,633.739928 L1008.97746,593.550603 L1008.97746,593.560734 L1211.36937,593.74309 Z M1269.47795,529.987252 L1269.47795,530.391376 L1230.18966,570.460243 L1230.18966,570.187459 L1027.79452,570.187459 L1067.08282,530.108489 L1067.08282,530.118592 L1269.47795,529.987252 Z M1329.89881,469.277766 L1329.89881,469.671786 L1290.61051,509.750757 L1290.61051,509.46787 L1088.21538,509.46787 L1127.50367,469.3889 L1127.50367,469.399003 L1329.89881,469.277766 Z M1390.31966,408.760767 L1390.31966,408.882338 L1351.04796,449.04127 L1351.04796,448.757605 L1148.63624,448.757605 L1187.92775,408.56828 L1187.92775,408.57841 L1390.31966,408.760767 Z M1450.43892,351.036961 L1450.43892,351.441085 L1411.15063,391.509952 L1411.15063,391.237168 L1208.75549,391.237168 L1248.04378,351.158198 L1248.04378,351.168301 L1450.43892,351.036961 Z M1510.85978,290.327475 L1510.85978,290.721495 L1471.57148,330.800465 L1471.57148,330.517579 L1269.17635,330.517579 L1308.46464,290.438609 L1308.46464,290.448712 L1510.85978,290.327475 Z M1571.28063,229.810476 L1571.28063,229.932047 L1532.00893,270.090979 L1532.00893,269.807314 L1329.59721,269.807314 L1368.88872,229.617988 L1368.88872,229.628119 L1571.28063,229.810476 Z M1631.39989,171.081331 L1631.39989,171.485455 L1592.1116,211.554322 L1592.1116,211.281538 L1389.71646,211.281538 L1429.00475,171.202568 L1429.00475,171.212671 L1631.39989,171.081331 Z M1691.82074,110.371845 L1691.82074,110.765865 L1652.53245,150.844835 L1652.53245,150.561949 L1450.13732,150.561949 L1489.42561,110.482979 L1489.42561,110.493082 L1691.82074,110.371845 Z M1752.2416,49.8548456 L1752.2416,49.9764166 L1712.9699,90.1353492 L1712.9699,89.8516837 L1510.55817,89.8516837 L1549.84969,49.6623583 L1549.84969,49.6724892 L1752.2416,49.8548456 Z" id="Combined-Shape" fill="url(#linearGradient-4)" opacity="0.101395089" mask="url(#mask-2)"></path>
        </g>
    </g>
</svg>