<?xml version="1.0" encoding="UTF-8"?>
<svg width="271px" height="111px" viewBox="0 0 271 111" version="1.1" xmlns="http://www.w3.org/2000/svg" xmlns:xlink="http://www.w3.org/1999/xlink">
    <!-- Generator: Sketch 51.3 (57544) - http://www.bohemiancoding.com/sketch -->
    <title>icrowd logo knockout - no tag</title>
    <desc>Created with Sketch.</desc>
    <defs>
        <path d="M20.0205992,47.971965 L0.0285519491,47.971965 L0,48 L0,23.9275839 L4,20 L4,44.0010893 L23.9739466,44.0190004 L23.9929489,44 L23.9929506,44.0190175 L24,44.0190238 L24,44.0310388 L23.9929524,44.0382114 L23.9949631,66 L48,66 L44.0144959,70 L20,70 L20,47.9925622 L20.0205992,47.971965 Z M25,0 L25,20 L21,20 L21,3.92595526 L25,0 Z" id="path-1"></path>
        <path d="M20.0213843,47.9730404 L0.0274566364,47.9730404 L0,48 L0,23.9275839 L4,20 L4,44.0129169 L24,44 L24,44.0399401 L23.9949635,44.0450522 L23.9949635,66 L48,66 L44.0146389,70 L20,70 L20,47.9944218 L20.0213843,47.9730404 Z M24,0 L24,8 L20,8 L20,4.00707071 L24,0 Z" id="path-3"></path>
        <path d="M20.0232305,47.9720419 L0.0284735488,47.9720419 L0,48 L0,23.9275839 L4,20 L4,44.0119233 L24,44 L24,44.0389416 L23.9949635,44.044055 L23.9949635,66 L48,66 L44.0155005,70 L20,70 L20,47.9952742 L20.0232305,47.9720419 Z M25,0 L25,14 L21,14 L21,3.94851372 L25,0 Z" id="path-5"></path>
    </defs>
    <g id="icrowd-logo-knockout---no-tag" stroke="none" stroke-width="1" fill="none" fill-rule="evenodd">
        <g id="Logomark" transform="translate(24.000000, 12.000000)">
            <g id="Yellow" transform="translate(12.000000, 0.000000)">
                <mask id="mask-2" fill="white">
                    <use xlink:href="#path-1"></use>
                </mask>
                <use id="Mask" fill="#FCB833" xlink:href="#path-1"></use>
                <polygon id="Fill-22" fill="#E99619" mask="url(#mask-2)" points="23.9844995 66 20 70 44.0144959 70 48 66"></polygon>
                <polygon id="Fill-25" fill="#E99619" mask="url(#mask-2)" points="24 44.0190238 3.90178315 44.0010013 3.90178315 44 0 47.971965 20.1001845 47.971965 20.1001845 48 24 44.0310388"></polygon>
            </g>
            <g id="Orange" transform="translate(0.000000, 12.000000)">
                <mask id="mask-4" fill="white">
                    <use xlink:href="#path-3"></use>
                </mask>
                <use id="Mask" fill="#F26F21" xlink:href="#path-3"></use>
                <polygon id="Fill-20" fill="#C45A1D" mask="url(#mask-4)" points="20 70 44.0146389 70 48 66 23.9843565 66"></polygon>
                <polygon id="Fill-23" fill="#C45A1D" mask="url(#mask-4)" points="24 44 3.90146329 44.0129805 3.90146329 44.011982 0 47.9730404 20.0985367 47.9730404 20.0985367 48 24 44.0399401"></polygon>
            </g>
            <g id="Teal" transform="translate(6.000000, 6.000000)">
                <mask id="mask-6" fill="white">
                    <use xlink:href="#path-5"></use>
                </mask>
                <use id="Mask" fill="#29AFBE" xlink:href="#path-5"></use>
                <polygon id="Fill-21" fill="#0093A5" mask="url(#mask-6)" points="20 70 44.0155005 70 48 66 23.9844995 66"></polygon>
                <polygon id="Fill-24" fill="#0093A5" mask="url(#mask-6)" points="24 44 3.90146329 44.011982 3.90146329 44.0109835 0 47.9720419 20.0985367 47.9720419 20.0985367 48 24 44.0389416"></polygon>
            </g>
        </g>
        <path d="M74.4995105,23 C71.7661264,23 70,24.7793406 70,27.5319005 C70,30.2044559 71.8072446,32 74.4995105,32 C77.1917764,32 79,30.2044559 79,27.5319005 C79,24.8218746 77.1917764,23 74.4995105,23" id="Fill-2" fill="#FEFEFE"></path>
        <polygon id="Fill-4" fill="#FEFEFE" points="71 67 79 67 79 36 71 36"></polygon>
        <path d="M99.1086383,60.8857562 C93.6871248,60.8857562 90.0442813,57.1136934 90.0442813,51.4979818 C90.0442813,45.9730903 93.771634,42.1132347 99.1086383,42.1132347 C103.189935,42.1132347 106.287943,43.9407376 107.430309,44.7268363 L107.818057,44.9942511 L107.818057,37.599474 L107.813086,37.4440707 L107.679859,37.3724237 C106.107988,36.5439423 103.182976,35 98.3172345,35 C88.8621468,35 82,41.9386582 82,51.4979818 C82,61.0613418 88.8621468,68 98.3172345,68 C103.239647,68 106.364498,66.3531282 107.866774,65.561984 L108,65.4913461 L108,58.0198765 L107.618217,58.2681182 C106.406256,59.055226 103.150166,60.8857562 99.1086383,60.8857562" id="Fill-6" fill="#FEFEFE"></path>
        <path d="M128.816454,35 C125.120597,35 121.799004,37.1272488 119.586982,40.8712468 C119.587999,40.8341378 119.587999,40.7970288 119.589016,40.7589168 C119.597152,40.437974 119.606306,40.0688899 119.606306,39.6717232 C119.606306,38.5073027 119.54325,37.2656554 119.481212,36.0360434 L119.469008,35.7983451 L112,35.7983451 L112,67 L120.104646,67 L120.104646,53.5474832 C120.104646,46.7485113 124.565304,42.6845734 128.878493,42.6845734 C129.545659,42.6845734 130.07451,42.8009152 130.390804,42.8711214 C130.553527,42.9072275 130.662349,42.9302952 130.746762,42.9302952 L131,42.9302952 L131,35.2547483 L130.827106,35.1965774 C130.583021,35.1163418 129.726689,35 128.816454,35" id="Fill-7" fill="#FEFEFE"></path>
        <path d="M147.500506,61.0714329 C142.400755,61.0714329 138.699764,57.0460828 138.699764,51.4989909 C138.699764,45.9539172 142.400755,41.9285671 147.500506,41.9285671 C152.682299,41.9285671 156.300236,45.8651153 156.300236,51.4989909 C156.300236,57.0460828 152.600258,61.0714329 147.500506,61.0714329 M147.500506,35 C137.940118,35 131,41.9386582 131,51.4989909 C131,61.0613418 137.940118,68 147.500506,68 C157.059882,68 164,61.0613418 164,51.4989909 C164,41.9386582 157.059882,35 147.500506,35" id="Fill-8" fill="#FEFEFE"></path>
        <path d="M202.716389,36 L198.819918,46.9297874 C198.279487,48.3811629 197.738062,49.9871767 197.213556,51.5406336 C196.630329,53.2659107 196.07497,54.9103313 195.541507,56.3010644 L195.059797,54.7930893 C194.250645,52.2552036 193.413625,49.630397 192.522861,47.0581472 L188.808523,36.3092764 L184.189487,36.3092764 L184.131761,36.4810966 C182.197957,42.2572881 179.331587,50.7563248 177.422664,56.2757967 C176.242277,52.798964 174.925538,49.0613689 173.53714,45.1175895 C172.488128,42.1420675 171.425182,39.1240959 170.404038,36.1687881 L170.346312,36 L162,36 L174.875774,67.8433404 L174.939471,68 L179.849126,68 L186.500498,49.4878873 L193.150874,68 L198.060529,68 L211,36 L202.716389,36 Z" id="Fill-9" fill="#FEFEFE"></path>
        <path d="M233.870863,51.7821488 C233.870863,58.2472727 229.632783,61.1897521 225.694858,61.1897521 C220.917295,61.1897521 217.579682,57.3219835 217.579682,51.7821488 C217.579682,46.2452893 220.917295,42.3775207 225.694858,42.3775207 C229.632783,42.3775207 233.870863,45.32 233.870863,51.7821488 Z M234.05335,23 L234.05335,38.3034711 C234.05335,39.0343802 234.089249,39.6105785 234.130134,40.0271074 C232.440885,37.8452893 229.04344,35.5672727 224.290807,35.5672727 C215.876472,35.5672727 210,42.2357025 210,51.7821488 C210,61.1808264 216.087878,68 224.474291,68 C229.057401,68 232.829791,65.4373554 234.547959,62.6585124 C234.529012,62.9838017 234.522032,63.3735537 234.542973,63.814876 L234.673605,67.2105785 L242,67.2105785 L242,23 L234.05335,23 Z" id="Fill-10" fill="#FEFEFE"></path>
    </g>
</svg>