<?xml version="1.0" encoding="UTF-8"?>
<svg width="446px" height="167px" viewBox="0 0 446 167" version="1.1" xmlns="http://www.w3.org/2000/svg" xmlns:xlink="http://www.w3.org/1999/xlink">
    <!-- Generator: Sketch 51.3 (57544) - http://www.bohemiancoding.com/sketch -->
    <title>icrowd logo knockout</title>
    <desc>Created with Sketch.</desc>
    <defs>
        <path d="M40.7085517,97.1139778 L0.0580556298,97.1139778 L0,97.1707317 L0,48.4387674 L8.13333333,40.4878049 L8.13333333,89.075376 L48.7470248,89.111635 L48.7856627,89.0731707 L48.7856663,89.1116695 L48.8,89.1116823 L48.8,89.1360054 L48.7856698,89.1505255 L48.7897583,133.609756 L97.6,133.609756 L89.4961416,141.707317 L40.6769076,141.707317 L40.6666667,141.707317 L40.6666667,97.1556746 L40.7085517,97.1139778 Z M50.8333333,0 L50.8333333,40.4878049 L42.7,40.4878049 L42.7,7.94766552 L50.8333333,0 Z" id="path-1"></path>
        <path d="M40.7101481,97.116155 L0.0558284939,97.116155 L0,97.1707317 L0,48.4387674 L8.13333333,40.4878049 L8.13333333,89.0993196 L48.8,89.0731707 L48.8,89.1540251 L48.7897591,89.1643741 L48.7897591,133.609756 L97.6,133.609756 L89.4964324,141.707317 L40.6769076,141.707317 L40.6666667,141.707317 L40.6666667,97.1594394 L40.7101481,97.116155 Z M48.8,0 L48.8,16.195122 L40.6666667,16.195122 L40.6666667,8.11187485 L48.8,0 Z" id="path-3"></path>
        <path d="M40.713902,97.1141337 L0.0578962159,97.1141337 L0,97.1707317 L0,48.4387674 L8.13333333,40.4878049 L8.13333333,89.0973081 L48.8,89.0731707 L48.8,89.1520037 L48.7897591,89.1623553 L48.7897591,133.609756 L97.6,133.609756 L89.4981844,141.707317 L40.6769076,141.707317 L40.6666667,141.707317 L40.6666667,97.1611649 L40.713902,97.1141337 Z M50.8333333,0 L50.8333333,28.3414634 L42.7,28.3414634 L42.7,7.99333266 L50.8333333,0 Z" id="path-5"></path>
    </defs>
    <g id="Page-1" stroke="none" stroke-width="1" fill="none" fill-rule="evenodd">
        <g id="icrowd-v1" transform="translate(-474.000000, -120.000000)">
            <g id="icrowd-logo-knockout" transform="translate(426.000000, 96.000000)">
                <g id="Logomark" transform="translate(48.885609, 24.324324)" stroke-width="1">
                    <g id="Yellow" transform="translate(24.400000, 0.000000)">
                        <mask id="mask-2" fill="white">
                            <use xlink:href="#path-1"></use>
                        </mask>
                        <use id="Mask" fill="#FCB833" xlink:href="#path-1"></use>
                        <polygon id="Fill-22" fill="#E99619" mask="url(#mask-2)" points="48.7684822 133.609756 40.6666667 141.707317 89.4961416 141.707317 97.6 133.609756"></polygon>
                        <polygon id="Fill-25" fill="#E99619" mask="url(#mask-2)" points="48.8 89.1116823 7.93362574 89.0751977 7.93362574 89.0731707 0 97.1139778 40.8703751 97.1139778 40.8703751 97.1707317 48.8 89.1360054"></polygon>
                    </g>
                    <g id="Orange" transform="translate(0.000000, 24.292683)">
                        <mask id="mask-4" fill="white">
                            <use xlink:href="#path-3"></use>
                        </mask>
                        <use id="Mask" fill="#F26F21" xlink:href="#path-3"></use>
                        <polygon id="Fill-20" fill="#C45A1D" mask="url(#mask-4)" points="40.6666667 141.707317 89.4964324 141.707317 97.6 133.609756 48.7681915 133.609756"></polygon>
                        <polygon id="Fill-23" fill="#C45A1D" mask="url(#mask-4)" points="48.8 89.0731707 7.93297537 89.0994484 7.93297537 89.097427 0 97.116155 40.8670246 97.116155 40.8670246 97.1707317 48.8 89.1540251"></polygon>
                    </g>
                    <g id="Teal" transform="translate(12.200000, 12.146341)">
                        <mask id="mask-6" fill="white">
                            <use xlink:href="#path-5"></use>
                        </mask>
                        <use id="Mask" fill="#29AFBE" xlink:href="#path-5"></use>
                        <polygon id="Fill-21" fill="#0093A5" mask="url(#mask-6)" points="40.6666667 141.707317 89.4981844 141.707317 97.6 133.609756 48.7684822 133.609756"></polygon>
                        <polygon id="Fill-24" fill="#0093A5" mask="url(#mask-6)" points="48.8 89.0731707 7.93297537 89.097427 7.93297537 89.0954057 0 97.1141337 40.8670246 97.1141337 40.8670246 97.1707317 48.8 89.1520037"></polygon>
                    </g>
                </g>
                <path d="M152.408482,46.6216216 C157.892359,46.6216216 161.57553,50.3146108 161.57553,55.8079065 C161.57553,61.2252485 157.892359,64.8648649 152.408482,64.8648649 C146.924604,64.8648649 143.243427,61.2252485 143.243427,55.8079065 C143.243427,50.2283931 146.840851,46.6216216 152.408482,46.6216216 Z M144.619926,135.810811 L144.619926,72.972973 L160.915129,72.972973 L160.915129,135.810811 L144.619926,135.810811 Z M201.874422,123.417073 C210.106612,123.417073 216.738942,119.706539 219.207586,118.11105 L219.98524,117.607858 L219.98524,132.752729 L219.713871,132.895913 C216.653886,134.499584 210.288874,137.837838 200.262411,137.837838 C181.00334,137.837838 167.02583,123.77299 167.02583,104.387801 C167.02583,85.0107936 181.00334,70.9459459 200.262411,70.9459459 C210.173441,70.9459459 216.1314,74.0755586 219.333145,75.7549129 L219.604514,75.9001433 L219.614639,76.2151501 L219.614639,91.2045631 L218.824835,90.662506 C216.497951,89.0690626 210.187617,85.3646649 201.874422,85.3646649 C191.003476,85.3646649 183.41123,93.1886966 183.41123,104.387801 C183.41123,115.771 190.831339,123.417073 201.874422,123.417073 Z M262.386283,70.9459459 C264.24034,70.9459459 265.984604,71.1817738 266.481781,71.3444137 L266.833948,71.4623277 L266.833948,87.0208687 L266.318127,87.0208687 C266.146186,87.0208687 265.924528,86.9741098 265.593077,86.9009218 C264.948818,86.7586119 263.8716,86.522784 262.512649,86.522784 C253.727113,86.522784 244.641198,94.7604958 244.641198,108.542196 L244.641198,135.810811 L228.132841,135.810811 L228.132841,72.5642131 L243.346466,72.5642131 L243.371325,73.0460339 C243.49769,75.5384906 243.626128,78.0553433 243.626128,80.4156551 C243.626128,81.2207227 243.607484,81.9688663 243.590911,82.619426 C243.58884,82.6966799 243.58884,82.7719009 243.586768,82.8471219 C248.092437,75.2579367 254.858191,70.9459459 262.386283,70.9459459 Z M300.443836,70.9459459 C319.915331,70.9459459 334.051661,85.0107936 334.051661,104.389846 C334.051661,123.77299 319.915331,137.837838 300.443836,137.837838 C280.970278,137.837838 266.833948,123.77299 266.833948,104.389846 C266.833948,85.0107936 280.970278,70.9459459 300.443836,70.9459459 Z M300.443836,123.793445 C310.831521,123.793445 318.368009,115.633952 318.368009,104.389846 C318.368009,92.9698283 310.998632,84.9903386 300.443836,84.9903386 C290.05615,84.9903386 282.5176,93.1498321 282.5176,104.389846 C282.5176,115.633952 290.05615,123.793445 300.443836,123.793445 Z M412.913088,72.972973 L429.785978,72.972973 L403.429564,137.837838 L393.429087,137.837838 L379.882932,100.313285 L366.33475,137.837838 L356.334274,137.837838 L356.204529,137.520285 L329.97786,72.972973 L346.978467,72.972973 L347.096048,73.315111 C349.176017,79.3055998 351.341131,85.4231099 353.477864,91.4545732 C356.305892,99.4487207 358.987958,107.024927 361.392289,114.072561 C365.280575,102.884442 371.119085,85.6566652 375.058052,73.9481688 L375.175633,73.5998846 L384.58415,73.5998846 L392.149886,95.3881363 C393.964284,100.602156 395.66921,105.92271 397.317373,111.067073 L398.298567,114.123779 C399.385179,111.304726 400.51639,107.971441 401.704365,104.474257 C402.772731,101.325358 403.875561,98.0699249 404.976363,95.1279475 L412.913088,72.972973 Z M476.743355,46.6216216 L492.929889,46.6216216 L492.929889,136.237659 L478.006754,136.237659 L477.740668,129.354478 C477.698013,128.459906 477.712231,127.669868 477.750824,127.010498 C474.251088,132.643288 466.567105,137.837838 457.231766,137.837838 C440.149478,137.837838 427.749077,124.015189 427.749077,104.963815 C427.749077,85.6129104 439.718866,72.0958231 456.858028,72.0958231 C466.538668,72.0958231 473.458924,76.7134242 476.899756,81.1360286 C476.816478,80.2917132 476.743355,79.1237436 476.743355,77.6421711 L476.743355,46.6216216 Z M476.371648,104.963815 C476.371648,91.8648649 467.7391,85.9003797 459.71794,85.9003797 C449.98652,85.9003797 443.188135,93.7404512 443.188135,104.963815 C443.188135,116.19321 449.98652,124.033281 459.71794,124.033281 C467.7391,124.033281 476.371648,118.068796 476.371648,104.963815 Z" id="Combined-Shape" fill="#FEFEFE"></path>
                <path d="M186.070849,169.755013 L186.070849,158.483121 C186.070849,158.312851 186.224838,158.159607 186.395938,158.159607 L188.449134,158.159607 C188.620233,158.159607 188.774223,158.312851 188.774223,158.483121 L188.774223,169.755013 C188.774223,169.925283 188.620233,170.078526 188.449134,170.078526 L186.395938,170.078526 C186.224838,170.078526 186.070849,169.925283 186.070849,169.755013 Z M193.142967,169.755013 L193.125857,158.295823 C193.125857,158.125553 193.279846,157.989337 193.450946,157.989337 L193.878695,157.989337 L200.70557,164.527715 L200.72268,164.527715 L200.72268,158.483121 C200.72268,158.312851 200.85956,158.159607 201.04777,158.159607 L203.100965,158.159607 C203.272065,158.159607 203.426055,158.312851 203.426055,158.483121 L203.426055,169.94231 C203.426055,170.11258 203.272065,170.248796 203.100965,170.248796 L202.827206,170.248796 C202.775876,170.248796 202.638996,170.197715 202.604776,170.163661 L195.846341,163.403932 L195.829231,163.403932 L195.829231,169.755013 C195.829231,169.925283 195.692351,170.078526 195.504142,170.078526 L193.468056,170.078526 C193.296956,170.078526 193.142967,169.925283 193.142967,169.755013 Z M209.334695,169.755013 L209.334695,160.66258 L206.88797,160.66258 C206.699761,160.66258 206.562881,160.509337 206.562881,160.339067 L206.562881,158.483121 C206.562881,158.312851 206.699761,158.159607 206.88797,158.159607 L214.484794,158.159607 C214.673004,158.159607 214.809883,158.312851 214.809883,158.483121 L214.809883,160.339067 C214.809883,160.509337 214.673004,160.66258 214.484794,160.66258 L212.038069,160.66258 L212.038069,169.755013 C212.038069,169.925283 211.88408,170.078526 211.71298,170.078526 L209.659784,170.078526 C209.488685,170.078526 209.334695,169.925283 209.334695,169.755013 Z M217.94671,169.755013 L217.94671,158.483121 C217.94671,158.312851 218.08359,158.159607 218.271799,158.159607 L225.355324,158.159607 C225.543534,158.159607 225.680413,158.312851 225.680413,158.483121 L225.680413,160.339067 C225.680413,160.509337 225.543534,160.66258 225.355324,160.66258 L220.615864,160.66258 L220.615864,162.773932 L224.516936,162.773932 C224.688035,162.773932 224.842025,162.927175 224.842025,163.097445 L224.842025,164.953391 C224.842025,165.140688 224.688035,165.276905 224.516936,165.276905 L220.615864,165.276905 L220.615864,167.575553 L225.355324,167.575553 C225.543534,167.575553 225.680413,167.728796 225.680413,167.899067 L225.680413,169.755013 C225.680413,169.925283 225.543534,170.078526 225.355324,170.078526 L218.271799,170.078526 C218.08359,170.078526 217.94671,169.925283 217.94671,169.755013 Z M229.398979,169.755013 L229.398979,158.483121 C229.398979,158.312851 229.535858,158.159607 229.724068,158.159607 L231.760153,158.159607 C231.931253,158.159607 232.085243,158.312851 232.085243,158.483121 L232.085243,167.575553 L236.157414,167.575553 C236.345624,167.575553 236.482503,167.728796 236.482503,167.899067 L236.482503,169.755013 C236.482503,169.925283 236.345624,170.078526 236.157414,170.078526 L229.724068,170.078526 C229.535858,170.078526 229.398979,169.925283 229.398979,169.755013 Z M239.568,169.755013 L239.568,158.483121 C239.568,158.312851 239.70488,158.159607 239.893089,158.159607 L241.929175,158.159607 C242.100274,158.159607 242.254264,158.312851 242.254264,158.483121 L242.254264,167.575553 L246.326435,167.575553 C246.514645,167.575553 246.651525,167.728796 246.651525,167.899067 L246.651525,169.755013 C246.651525,169.925283 246.514645,170.078526 246.326435,170.078526 L239.893089,170.078526 C239.70488,170.078526 239.568,169.925283 239.568,169.755013 Z M249.737021,169.755013 L249.737021,158.483121 C249.737021,158.312851 249.891011,158.159607 250.062111,158.159607 L252.115306,158.159607 C252.286406,158.159607 252.440395,158.312851 252.440395,158.483121 L252.440395,169.755013 C252.440395,169.925283 252.286406,170.078526 252.115306,170.078526 L250.062111,170.078526 C249.891011,170.078526 249.737021,169.925283 249.737021,169.755013 Z M255.953641,164.136094 C255.953641,160.730688 258.691235,158.006364 262.096118,158.006364 C263.533355,158.006364 265.107471,158.60231 266.270949,159.606905 C266.424939,159.726094 266.442049,159.930418 266.305169,160.066634 L264.953482,161.496905 C264.816602,161.616094 264.628392,161.616094 264.491513,161.513932 C263.841334,160.917986 263.088496,160.696634 262.250108,160.696634 C260.385122,160.696634 258.879445,162.263121 258.879445,164.136094 C258.879445,165.99204 260.402232,167.524472 262.267218,167.524472 C262.763406,167.524472 263.276705,167.456364 263.790004,167.25204 L263.790004,166.264472 L262.712077,166.264472 C262.523867,166.264472 262.386987,166.128256 262.386987,165.957986 L262.386987,164.27231 C262.386987,164.085013 262.523867,163.948796 262.712077,163.948796 L266.151179,163.948796 C266.322279,163.948796 266.459159,164.10204 266.459159,164.27231 L266.476268,168.85258 C266.476268,168.937715 266.407829,169.073932 266.339389,169.125013 C266.339389,169.125013 264.577063,170.231769 262.096118,170.231769 C258.691235,170.231769 255.953641,167.541499 255.953641,164.136094 Z M270.246164,169.755013 L270.246164,158.483121 C270.246164,158.312851 270.383043,158.159607 270.571253,158.159607 L277.654778,158.159607 C277.842987,158.159607 277.979867,158.312851 277.979867,158.483121 L277.979867,160.339067 C277.979867,160.509337 277.842987,160.66258 277.654778,160.66258 L272.915318,160.66258 L272.915318,162.773932 L276.816389,162.773932 C276.987489,162.773932 277.141479,162.927175 277.141479,163.097445 L277.141479,164.953391 C277.141479,165.140688 276.987489,165.276905 276.816389,165.276905 L272.915318,165.276905 L272.915318,167.575553 L277.654778,167.575553 C277.842987,167.575553 277.979867,167.728796 277.979867,167.899067 L277.979867,169.755013 C277.979867,169.925283 277.842987,170.078526 277.654778,170.078526 L270.571253,170.078526 C270.383043,170.078526 270.246164,169.925283 270.246164,169.755013 Z M281.698432,169.755013 L281.681322,158.295823 C281.681322,158.125553 281.835312,157.989337 282.006412,157.989337 L282.434161,157.989337 L289.261036,164.527715 L289.278146,164.527715 L289.278146,158.483121 C289.278146,158.312851 289.415026,158.159607 289.603235,158.159607 L291.656431,158.159607 C291.82753,158.159607 291.98152,158.312851 291.98152,158.483121 L291.98152,169.94231 C291.98152,170.11258 291.82753,170.248796 291.656431,170.248796 L291.382671,170.248796 C291.331341,170.248796 291.194462,170.197715 291.160242,170.163661 L284.401806,163.403932 L284.384696,163.403932 L284.384696,169.755013 C284.384696,169.925283 284.247817,170.078526 284.059607,170.078526 L282.023522,170.078526 C281.852422,170.078526 281.698432,169.925283 281.698432,169.755013 Z M297.890161,169.755013 L297.890161,160.66258 L295.443436,160.66258 C295.255226,160.66258 295.118347,160.509337 295.118347,160.339067 L295.118347,158.483121 C295.118347,158.312851 295.255226,158.159607 295.443436,158.159607 L303.04026,158.159607 C303.228469,158.159607 303.365349,158.312851 303.365349,158.483121 L303.365349,160.339067 C303.365349,160.509337 303.228469,160.66258 303.04026,160.66258 L300.593535,160.66258 L300.593535,169.755013 C300.593535,169.925283 300.439545,170.078526 300.268446,170.078526 L298.21525,170.078526 C298.04415,170.078526 297.890161,169.925283 297.890161,169.755013 Z M311.845204,164.136094 C311.845204,160.730688 314.599908,157.989337 318.0219,157.989337 C319.732897,157.989337 320.999034,158.517175 322.162511,159.572851 C322.316501,159.709067 322.316501,159.913391 322.179621,160.049607 L320.845044,161.428796 C320.725275,161.547986 320.537065,161.547986 320.417295,161.428796 C319.784227,160.866905 318.945838,160.560418 318.10745,160.560418 C316.174024,160.560418 314.753897,162.160959 314.753897,164.067986 C314.753897,165.957986 316.191134,167.524472 318.12456,167.524472 C318.928728,167.524472 319.801337,167.235013 320.417295,166.707175 C320.537065,166.605013 320.759494,166.605013 320.862154,166.724202 L322.196731,168.137445 C322.316501,168.256634 322.299391,168.477986 322.179621,168.597175 C321.016144,169.720959 319.544687,170.248796 318.0219,170.248796 C314.599908,170.248796 311.845204,167.541499 311.845204,164.136094 Z M325.658647,169.755013 L325.658647,158.483121 C325.658647,158.312851 325.795527,158.159607 325.983737,158.159607 L331.099616,158.159607 C333.152811,158.159607 334.829587,159.811229 334.829587,161.837445 C334.829587,163.403932 333.78588,164.663932 332.297313,165.259878 L334.641378,169.584742 C334.761148,169.806094 334.641378,170.078526 334.350508,170.078526 L332.074883,170.078526 C331.938004,170.078526 331.835344,169.993391 331.801124,169.925283 L329.525499,165.413121 L328.344911,165.413121 L328.344911,169.755013 C328.344911,169.925283 328.190922,170.078526 328.019822,170.078526 L325.983737,170.078526 C325.795527,170.078526 325.658647,169.925283 325.658647,169.755013 Z M328.344911,163.250688 L330.877186,163.250688 C331.578694,163.250688 332.177543,162.603661 332.177543,161.888526 C332.177543,161.173391 331.578694,160.594472 330.877186,160.594472 L328.344911,160.594472 L328.344911,163.250688 Z M337.675545,164.136094 C337.675545,160.730688 340.396029,157.989337 343.818021,157.989337 C347.240014,157.989337 349.977608,160.730688 349.977608,164.136094 C349.977608,167.541499 347.240014,170.248796 343.818021,170.248796 C340.396029,170.248796 337.675545,167.541499 337.675545,164.136094 Z M340.413139,164.136094 C340.413139,165.99204 341.953035,167.524472 343.818021,167.524472 C345.700117,167.524472 347.240014,165.99204 347.240014,164.136094 C347.240014,162.263121 345.700117,160.713661 343.818021,160.713661 C341.953035,160.713661 340.413139,162.263121 340.413139,164.136094 Z M355.561159,170.010418 L352.327376,158.568256 C352.258936,158.329878 352.395816,158.159607 352.635356,158.159607 L354.637221,158.159607 C354.774101,158.159607 354.910981,158.278796 354.945201,158.397986 L356.416658,164.170148 L356.485097,164.170148 L359.137142,158.176634 C359.188472,158.074472 359.291131,157.989337 359.428011,157.989337 L359.73599,157.989337 C359.88998,157.989337 359.99264,158.074472 360.02686,158.176634 L362.678904,164.170148 L362.747344,164.170148 L364.218801,158.397986 C364.253021,158.278796 364.3899,158.159607 364.52678,158.159607 L366.528646,158.159607 C366.768185,158.159607 366.905065,158.329878 366.836625,158.568256 L363.602842,170.010418 C363.568622,170.146634 363.431742,170.248796 363.294863,170.248796 L363.021103,170.248796 C362.901334,170.248796 362.781564,170.163661 362.730234,170.061499 L359.599111,163.097445 L359.547781,163.097445 L356.433767,170.061499 C356.382438,170.163661 356.262668,170.248796 356.142898,170.248796 L355.869139,170.248796 C355.732259,170.248796 355.595379,170.146634 355.561159,170.010418 Z M370.093221,169.755013 L370.093221,158.483121 C370.093221,158.312851 370.230101,158.159607 370.401201,158.159607 L374.576032,158.159607 C377.878255,158.159607 380.581629,160.832851 380.581629,164.10204 C380.581629,167.405283 377.878255,170.078526 374.576032,170.078526 L370.401201,170.078526 C370.230101,170.078526 370.093221,169.925283 370.093221,169.755013 Z M372.762376,167.558526 L374.404932,167.558526 C376.338358,167.558526 377.741375,166.043121 377.741375,164.10204 C377.741375,162.177986 376.338358,160.66258 374.404932,160.66258 L372.762376,160.66258 L372.762376,167.558526 Z M389.731554,168.937715 C389.560454,168.767445 389.509124,168.699337 389.646004,168.460959 L390.450172,167.047715 C390.587052,166.826364 390.912141,166.860418 391.031911,166.945553 C391.100351,166.979607 392.332268,167.88204 393.461526,167.88204 C394.145924,167.88204 394.642113,167.456364 394.642113,166.860418 C394.642113,166.145283 394.043265,165.600418 392.879787,165.140688 C391.40833,164.561769 389.560454,163.420959 389.560454,161.377715 C389.560454,159.69204 390.877921,157.989337 393.512856,157.989337 C395.292292,157.989337 396.661089,158.891769 397.174388,159.266364 C397.379707,159.385553 397.345487,159.69204 397.277048,159.811229 L396.404439,161.12231 C396.28467,161.309607 395.97669,161.462851 395.822701,161.343661 C395.668711,161.258526 394.419684,160.32204 393.375976,160.32204 C392.760017,160.32204 392.298048,160.730688 392.298048,161.190418 C392.298048,161.820418 392.811347,162.297175 394.163034,162.84204 C395.497611,163.369878 397.619247,164.408526 397.619247,166.724202 C397.619247,168.477986 396.09646,170.248796 393.581296,170.248796 C391.357,170.248796 390.125083,169.329337 389.731554,168.937715 Z M400.259884,164.136094 C400.259884,160.730688 402.980369,157.989337 406.402361,157.989337 C409.824354,157.989337 412.561948,160.730688 412.561948,164.136094 C412.561948,167.541499 409.824354,170.248796 406.402361,170.248796 C402.980369,170.248796 400.259884,167.541499 400.259884,164.136094 Z M402.997479,164.136094 C402.997479,165.99204 404.537375,167.524472 406.402361,167.524472 C408.284457,167.524472 409.824354,165.99204 409.824354,164.136094 C409.824354,162.263121 408.284457,160.713661 406.402361,160.713661 C404.537375,160.713661 402.997479,162.263121 402.997479,164.136094 Z M416.058084,169.755013 L416.058084,158.483121 C416.058084,158.312851 416.194963,158.159607 416.383173,158.159607 L418.419259,158.159607 C418.590358,158.159607 418.744348,158.312851 418.744348,158.483121 L418.744348,167.575553 L422.816519,167.575553 C423.004729,167.575553 423.141608,167.728796 423.141608,167.899067 L423.141608,169.755013 C423.141608,169.925283 423.004729,170.078526 422.816519,170.078526 L416.383173,170.078526 C416.194963,170.078526 416.058084,169.925283 416.058084,169.755013 Z M425.919126,165.515283 L425.919126,158.483121 C425.919126,158.312851 426.073115,158.159607 426.244215,158.159607 L428.34874,158.159607 C428.53695,158.159607 428.67383,158.312851 428.67383,158.483121 L428.67383,165.379067 C428.67383,166.570959 429.563548,167.524472 430.778355,167.524472 C432.010273,167.524472 432.917101,166.570959 432.917101,165.379067 L432.917101,158.483121 C432.917101,158.312851 433.05398,158.159607 433.24219,158.159607 L435.346715,158.159607 C435.517815,158.159607 435.671805,158.312851 435.671805,158.483121 L435.671805,165.515283 C435.671805,168.103391 433.481729,170.248796 430.778355,170.248796 C428.092091,170.248796 425.919126,168.103391 425.919126,165.515283 Z M441.392236,169.755013 L441.392236,160.66258 L438.945511,160.66258 C438.757301,160.66258 438.620422,160.509337 438.620422,160.339067 L438.620422,158.483121 C438.620422,158.312851 438.757301,158.159607 438.945511,158.159607 L446.542335,158.159607 C446.730544,158.159607 446.867424,158.312851 446.867424,158.483121 L446.867424,160.339067 C446.867424,160.509337 446.730544,160.66258 446.542335,160.66258 L444.09561,160.66258 L444.09561,169.755013 C444.09561,169.925283 443.94162,170.078526 443.77052,170.078526 L441.717325,170.078526 C441.546225,170.078526 441.392236,169.925283 441.392236,169.755013 Z M450.00425,169.755013 L450.00425,158.483121 C450.00425,158.312851 450.15824,158.159607 450.32934,158.159607 L452.382535,158.159607 C452.553635,158.159607 452.707625,158.312851 452.707625,158.483121 L452.707625,169.755013 C452.707625,169.925283 452.553635,170.078526 452.382535,170.078526 L450.32934,170.078526 C450.15824,170.078526 450.00425,169.925283 450.00425,169.755013 Z M456.20376,164.136094 C456.20376,160.730688 458.924244,157.989337 462.346237,157.989337 C465.76823,157.989337 468.505824,160.730688 468.505824,164.136094 C468.505824,167.541499 465.76823,170.248796 462.346237,170.248796 C458.924244,170.248796 456.20376,167.541499 456.20376,164.136094 Z M458.941354,164.136094 C458.941354,165.99204 460.481251,167.524472 462.346237,167.524472 C464.228333,167.524472 465.76823,165.99204 465.76823,164.136094 C465.76823,162.263121 464.228333,160.713661 462.346237,160.713661 C460.481251,160.713661 458.941354,162.263121 458.941354,164.136094 Z M472.00196,169.755013 L471.98485,158.295823 C471.98485,158.125553 472.138839,157.989337 472.309939,157.989337 L472.737688,157.989337 L479.564563,164.527715 L479.581673,164.527715 L479.581673,158.483121 C479.581673,158.312851 479.718553,158.159607 479.906762,158.159607 L481.959958,158.159607 C482.131058,158.159607 482.285047,158.312851 482.285047,158.483121 L482.285047,169.94231 C482.285047,170.11258 482.131058,170.248796 481.959958,170.248796 L481.686199,170.248796 C481.634869,170.248796 481.497989,170.197715 481.463769,170.163661 L474.705334,163.403932 L474.688224,163.403932 L474.688224,169.755013 C474.688224,169.925283 474.551344,170.078526 474.363134,170.078526 L472.327049,170.078526 C472.155949,170.078526 472.00196,169.925283 472.00196,169.755013 Z M486.054943,168.937715 C485.883843,168.767445 485.832513,168.699337 485.969393,168.460959 L486.773561,167.047715 C486.910441,166.826364 487.23553,166.860418 487.3553,166.945553 C487.42374,166.979607 488.655657,167.88204 489.784914,167.88204 C490.469313,167.88204 490.965502,167.456364 490.965502,166.860418 C490.965502,166.145283 490.366653,165.600418 489.203176,165.140688 C487.731719,164.561769 485.883843,163.420959 485.883843,161.377715 C485.883843,159.69204 487.20131,157.989337 489.836244,157.989337 C491.615681,157.989337 492.984478,158.891769 493.497776,159.266364 C493.703096,159.385553 493.668876,159.69204 493.600436,159.811229 L492.727828,161.12231 C492.608058,161.309607 492.300079,161.462851 492.146089,161.343661 C491.9921,161.258526 490.743072,160.32204 489.699365,160.32204 C489.083406,160.32204 488.621437,160.730688 488.621437,161.190418 C488.621437,161.820418 489.134736,162.297175 490.486423,162.84204 C491.821,163.369878 493.942636,164.408526 493.942636,166.724202 C493.942636,168.477986 492.419849,170.248796 489.904684,170.248796 C487.680389,170.248796 486.448472,169.329337 486.054943,168.937715 Z" id="Intelligent-Crowd-So" fill="#FFFFFF"></path>
            </g>
        </g>
    </g>
</svg>